<?xml version="1.0" standalone="no"?>
<!DOCTYPE svg PUBLIC "-//W3C//DTD SVG 1.1//EN" "http://www.w3.org/Graphics/SVG/1.1/DTD/svg11.dtd" >
<svg>
<metadata>
Created by FontForge 20110222 at Thu Feb 20 05:38:04 2014
 By Orthosie Webhosting
(c) Copyright: Gerard Unger, 2005. Exclusive design for Allianz International. Symbols (c) copyright Novatype, 2005. Produced by Novatype, a division of Visualogik Technology &#38; Design bv, 2005.  Unauthorised use strictly prohibited. Allianz Sans and Allianz Serif are trademarks of Allianz International, that may be registered in some jurisdictions. ALL RIGHTS RESERVED.
</metadata>
<defs>
<font id="AllianzSansLight" horiz-adv-x="1020" >
  <font-face 
    font-family="Allianz Sans"
    font-weight="300"
    font-stretch="normal"
    units-per-em="2048"
    panose-1="2 0 5 6 5 0 0 2 0 4"
    ascent="1577"
    descent="-471"
    x-height="1049"
    cap-height="1440"
    bbox="-92 -471 2048 1913"
    underline-thickness="102"
    underline-position="-103"
    unicode-range="U+0020-FB04"
  />
<missing-glyph horiz-adv-x="1024" 
d="M201 0v1440h622v-1440h-622zM244 43h536v1354h-536v-1354z" />
    <glyph glyph-name=".notdef" horiz-adv-x="1024" 
d="M201 0v1440h622v-1440h-622zM244 43h536v1354h-536v-1354z" />
    <glyph glyph-name=".null" horiz-adv-x="0" 
 />
    <glyph glyph-name="nonmarkingreturn" horiz-adv-x="682" 
 />
    <glyph glyph-name="space" unicode=" " horiz-adv-x="410" 
 />
    <glyph glyph-name="exclam" unicode="!" horiz-adv-x="535" 
d="M162 92q0 51 28 82t76 31q47 0 77 -30.5t30 -80.5q0 -52 -27.5 -84.5t-77.5 -32.5q-49 0 -77.5 30.5t-28.5 84.5zM197 1409l139 31l-12 -1116h-113z" />
    <glyph glyph-name="quotedbl" unicode="&#x22;" horiz-adv-x="578" 
d="M98 1440h142l-23 -443h-96zM338 1440h141l-22 -443h-97z" />
    <glyph glyph-name="numbersign" unicode="#" horiz-adv-x="1204" 
d="M0 408l23 108h237l78 412h-240l21 108h239l76 404h123l-78 -404h365l76 404h122l-77 -404h239l-20 -108h-240l-78 -412h240l-21 -108h-239l-76 -408h-121l76 408h-365l-75 -408h-121l76 408h-240zM381 516h364l78 412h-364z" />
    <glyph glyph-name="dollar" unicode="$" 
d="M96 221q38 -36 91 -63q45 -23 110.5 -42.5t151.5 -19.5h8v598l-64 39q-51 31 -98.5 64.5t-85 77t-60 100t-22.5 133.5q0 62 18 120t57.5 105t102.5 79t152 42v170l106 25v-191q69 -3 120.5 -16.5t86.5 -27.5q40 -18 70 -38v-141q-32 27 -73 50q-36 20 -87 37.5t-117 23.5
v-545l76 -45q42 -25 86 -56t80 -75t59 -104t23 -144q0 -162 -84 -261t-240 -122v-211h-106v201h-13q-84 0 -146 14t-104 31q-49 19 -85 45zM260 1118q0 -55 15.5 -95.5t42 -72t62.5 -57t77 -49.5v502q-94 -14 -145.5 -70t-51.5 -158zM563 102q90 23 139.5 89.5t49.5 166.5
q0 55 -9.5 97.5t-30.5 76t-54.5 60.5t-82.5 51l-12 6v-547z" />
    <glyph glyph-name="percent" unicode="%" horiz-adv-x="1186" 
d="M0 0l1051 1446h135l-1047 -1446h-139zM23 1130q0 75 22.5 137t64 105.5t101 67.5t133.5 24q69 0 126 -22t98.5 -62.5t64 -98.5t22.5 -130q0 -71 -23.5 -132.5t-65.5 -106.5t-101 -71t-129 -26q-68 0 -125.5 23t-99 64t-65 99t-23.5 129zM154 1139q0 -45 10.5 -84.5
t32 -69.5t55.5 -47.5t82 -17.5t83.5 18t59 48.5t35.5 71t12 85.5t-11 85.5t-33.5 70.5t-58 47.5t-83.5 17.5t-83 -18t-57.5 -49t-33 -72t-10.5 -86zM530 297q0 75 22.5 136t64.5 104.5t101.5 67.5t133.5 24q68 0 125.5 -22t99 -63t65 -99t23.5 -130q0 -71 -23.5 -132
t-66 -105.5t-101 -70t-128.5 -25.5q-68 0 -126 22.5t-100 63.5t-66 99t-24 130zM664 303q0 -45 10.5 -84.5t32 -69t55.5 -46.5t82 -17t83 17t58.5 47t35 70.5t11.5 86.5q0 45 -10.5 85.5t-33 70.5t-57.5 47.5t-83 17.5t-83 -18t-57.5 -48.5t-33 -71.5t-10.5 -87z" />
    <glyph glyph-name="ampersand" unicode="&#x26;" horiz-adv-x="1430" 
d="M168 395q0 58 11.5 106.5t30.5 87t43 68.5t50 53q59 53 135 81l-16 18q-37 42 -68.5 82t-55 81.5t-37 87t-13.5 97.5q0 19 2.5 48.5t13 63t31.5 67.5t57 61.5t90.5 45t132.5 17.5q74 0 127.5 -15.5t91 -41t60 -58.5t35 -66.5t16.5 -66t4 -57.5q0 -56 -12 -102.5
t-31.5 -85t-44.5 -69t-51 -53.5q-62 -55 -139 -87l422 -486q19 22 35 59q14 32 25 82.5t11 125.5q0 20 -0.5 38t-1.5 31q-1 15 -2 27h129v-12q0 -105 -13.5 -177t-33.5 -121t-42 -79t-40 -51l170 -195h-162l-98 111q-37 -36 -94 -64q-49 -24 -124.5 -43.5t-182.5 -19.5
q-38 0 -87 5t-100 20t-100.5 42.5t-88 73.5t-62 112t-23.5 158zM299 408q0 -152 87 -237t271 -85q80 0 138 15.5t96 34.5q44 22 74 50l-465 535q-57 -23 -101 -65q-19 -18 -37 -42t-32 -54.5t-22.5 -68t-8.5 -83.5zM375 1165q0 -48 15.5 -90t39.5 -79t53 -70l56 -64l32 -37
q57 24 103 69q19 19 38 44t33.5 57t23.5 72t9 88q0 72 -21 114t-52.5 63.5t-68.5 27.5t-69 6q-62 0 -100 -20.5t-58.5 -51t-27 -65.5t-6.5 -64z" />
    <glyph glyph-name="quotesingle" unicode="'" horiz-adv-x="338" 
d="M98 1440h142l-23 -443h-96z" />
    <glyph glyph-name="parenleft" unicode="(" horiz-adv-x="719" 
d="M123 565q0 141 25.5 270.5t73 247.5t115.5 222t152 194l41 40q18 18 41 38h148q-114 -106 -200 -219t-143 -237.5t-85.5 -263.5t-28.5 -298q0 -171 31.5 -313t90.5 -265.5t142.5 -233.5t188.5 -218h-144q-40 31 -75 70q-188 204 -280.5 443.5t-92.5 522.5z" />
    <glyph glyph-name="parenright" unicode=")" horiz-adv-x="719" 
d="M0 -471q114 106 200 219t143 237.5t85.5 263.5t28.5 298q0 171 -31.5 313t-90.5 265.5t-142.5 233.5t-188.5 218h143q20 -16 39 -33t37 -37q187 -204 280 -443.5t93 -522.5q0 -141 -25.5 -270.5t-73 -247.5t-115.5 -222t-153 -194q-21 -22 -40 -40l-42 -38h-147z" />
    <glyph glyph-name="asterisk" unicode="*" horiz-adv-x="762" 
d="M51 1024l271 111l-271 114l74 123l223 -178l-39 295h150l-41 -295l225 178l72 -123l-269 -114l269 -111l-72 -125l-225 180l41 -295h-150l39 295l-223 -180z" />
    <glyph glyph-name="plus" unicode="+" horiz-adv-x="1311" 
d="M47 655v121h543v570h131v-570h543v-121h-543v-571h-131v571h-543z" />
    <glyph glyph-name="comma" unicode="," horiz-adv-x="379" 
d="M41 -252q23 58 39.5 112t27 107t14.5 108q1 25 1 51q0 31 -2 62h158q1 -14 1 -28q0 -50 -8 -99q-11 -64 -30.5 -125t-45 -117.5t-51.5 -105.5z" />
    <glyph glyph-name="hyphen" unicode="-" horiz-adv-x="666" 
d="M84 479v129h498v-129h-498z" />
    <glyph glyph-name="period" unicode="." horiz-adv-x="420" 
d="M104 92q0 54 31 87.5t82 33.5q50 0 82.5 -32.5t32.5 -86.5q0 -56 -30 -90.5t-83 -34.5q-52 0 -83.5 32t-31.5 91z" />
    <glyph glyph-name="slash" unicode="/" horiz-adv-x="717" 
d="M0 -362l518 1939h129l-520 -1939h-127z" />
    <glyph glyph-name="zero" unicode="0" 
d="M86 702q0 195 27.5 338t82 236.5t135.5 138.5t189 45q103 0 180.5 -42.5t129.5 -131.5t78 -225.5t26 -323.5q0 -195 -27.5 -337.5t-82 -236t-136 -138.5t-188.5 -45q-103 0 -180.5 42.5t-129.5 131t-78 225t-26 323.5zM225 711q0 -164 16.5 -282t51.5 -193.5t88.5 -111.5
t128.5 -36t129 37.5t88.5 116.5t51 199.5t16.5 287.5q0 163 -16.5 281t-51.5 194t-88.5 112t-128.5 36t-129 -37.5t-88.5 -116.5t-51 -200t-16.5 -287z" />
    <glyph glyph-name="one" unicode="1" 
d="M199 1217v106q38 6 85 17.5t93.5 27t89 35t72.5 41.5h77v-1444h-135v1266z" />
    <glyph glyph-name="two" unicode="2" 
d="M82 0v123l138 138l137 144l151 170q48 57 87 111t67 111t43.5 120t15.5 138q0 56 -13.5 108.5t-47.5 93t-92 65t-146 24.5q-80 0 -139 -17.5t-99 -37.5q-47 -24 -80 -54v143q35 21 83 39q42 14 103 26.5t142 12.5q90 0 168 -21t136 -68t91 -121.5t33 -182.5
q0 -81 -16.5 -151.5t-50.5 -139t-86 -140t-123 -153.5l-124 -136l-113 -116l-114 -110h625v-119h-776z" />
    <glyph glyph-name="three" unicode="3" 
d="M66 217q33 -35 81 -61q42 -23 105.5 -41.5t153.5 -18.5q160 0 242.5 80.5t82.5 233.5q0 67 -19 114t-50.5 78.5t-71 50t-80 27.5t-79 11.5t-66.5 2.5h-54v105h43q73 0 133 19.5t103 57t66.5 92.5t23.5 126q0 77 -22.5 126.5t-58.5 78t-81.5 39t-91.5 10.5
q-76 0 -132.5 -17.5t-94.5 -37.5q-45 -24 -76 -54v143q32 21 77 39q38 14 96 26.5t136 12.5q92 0 164 -22.5t121.5 -66.5t75.5 -109t26 -150q0 -56 -11 -101t-28.5 -80.5t-40 -62.5t-46.5 -46q-55 -46 -126 -66q84 -5 151 -45q28 -17 55.5 -42.5t49 -63t34.5 -88t13 -116.5
q0 -81 -26 -156t-82.5 -133t-144.5 -93t-211 -35q-81 0 -141.5 13t-102.5 29q-48 18 -84 42z" />
    <glyph glyph-name="four" unicode="4" 
d="M41 369v129l633 952h133v-963h166v-118h-166v-369h-135v369h-631zM174 487h498v760q-7 -14 -18 -32l-25 -40l-37 -57z" />
    <glyph glyph-name="five" unicode="5" 
d="M109 217q26 -35 69 -61q37 -23 95.5 -41.5t144.5 -18.5q94 0 159 28.5t105.5 78t59 115.5t18.5 141q0 70 -16.5 130t-54 104t-97.5 69.5t-146 25.5q-71 0 -124.5 -11t-88.5 -25q-42 -16 -71 -35v723h694v-117h-573v-455q19 8 46 15q23 6 59.5 11t88.5 5q114 0 194 -35.5
t130.5 -95.5t74 -138.5t23.5 -164.5q0 -93 -24.5 -180t-81.5 -153.5t-150 -107t-229 -40.5q-72 0 -126.5 13t-91.5 29q-43 18 -75 42z" />
    <glyph glyph-name="six" unicode="6" 
d="M104 670q0 197 27 345t87 247t157.5 148.5t238.5 49.5q72 0 126.5 -13t91.5 -29q43 -18 73 -42v-145q-27 32 -69 58q-36 22 -94 40.5t-140 18.5q-78 0 -134.5 -23t-95.5 -63t-63 -93t-37.5 -113t-19 -123t-6.5 -122q33 28 78 51q38 19 93.5 35t127.5 16q45 0 91.5 -8.5
t90 -28.5t81.5 -52.5t66.5 -80t45 -111.5t16.5 -147q0 -129 -31 -223.5t-86.5 -156t-133 -91.5t-169.5 -30q-128 0 -208.5 52t-125.5 144t-61.5 217.5t-16.5 272.5zM244 672q0 -77 2.5 -150.5t12 -138t27 -118.5t48 -93t75 -60.5t107.5 -21.5q28 0 60 4.5t63 18.5t59.5 40
t50.5 68.5t35 104t13 147.5q0 162 -72 245t-215 83q-58 0 -107 -15.5t-84 -34.5q-41 -22 -75 -49v-30z" />
    <glyph glyph-name="seven" unicode="7" 
d="M113 1323v117h780v-86q0 -110 -28 -206t-81 -196l-157 -301q-39 -73 -65 -138t-42.5 -131t-23.5 -137.5t-7 -158.5v-86h-135v63q0 64 3 118.5t10 104.5t20 98.5t32.5 101t47.5 111.5t65 130l109 207q35 67 58.5 122t38 100.5t20.5 83t6 69.5v14h-651z" />
    <glyph glyph-name="eight" unicode="8" 
d="M90 336q0 62 13 112.5t35 91t49.5 72t56.5 54.5q68 55 155 82l-55 32q-42 25 -81 56.5t-68 72t-46.5 91t-17.5 114.5q0 79 24.5 143t73.5 109t121.5 69.5t167.5 24.5q91 0 160.5 -23.5t116.5 -67t70.5 -105t23.5 -136.5q0 -51 -11.5 -94t-30.5 -79t-43 -65t-49 -51
q-59 -53 -134 -85l79 -47q45 -27 87 -58.5t73.5 -73t50.5 -96t19 -127.5q0 -82 -28 -151t-81.5 -118.5t-132 -77.5t-178.5 -28q-90 0 -167 20t-133 63.5t-88 111.5t-32 164zM227 348q0 -69 21 -119t59 -82t92 -47.5t119 -15.5q57 0 107.5 16t88 49t59.5 82t22 115
q0 63 -17 107.5t-46 77t-66.5 57.5t-77.5 49l-94 55q-75 -22 -134 -67q-25 -19 -49 -45t-42.5 -60t-30 -77t-11.5 -95zM268 1135q0 -45 7.5 -82.5t27 -70.5t54.5 -63.5t89 -62.5l86 -51q61 25 109 68q20 18 39.5 42.5t35 55.5t25 69t9.5 84q0 66 -18.5 110t-51 71t-75.5 38
t-91 11q-68 0 -115 -18.5t-76 -49t-42 -70t-13 -81.5z" />
    <glyph glyph-name="nine" unicode="9" 
d="M84 958q0 129 31 224t86.5 156.5t133 91.5t169.5 30q86 0 149.5 -23.5t109 -67.5t75 -105.5t47 -138t24 -165t6.5 -186.5q0 -197 -26.5 -345t-87 -247t-157.5 -148.5t-238 -49.5q-70 0 -123 13t-89 29q-42 18 -73 42l-12 149q27 -35 70 -61q37 -23 95.5 -41.5
t143.5 -18.5q78 0 134.5 23t95.5 63t63 93t37.5 113t18.5 122.5t7 122.5q-33 -29 -78 -52q-38 -20 -93.5 -35.5t-127.5 -15.5q-45 0 -91.5 8.5t-90 28.5t-81.5 52.5t-66.5 80t-45 111.5t-16.5 147zM223 971q0 -162 71.5 -245t215.5 -83q58 0 107 15t84 34q41 21 75 49v31
q0 77 -2.5 150.5t-12 138t-27 118.5t-48 93t-75 60.5t-107.5 21.5q-28 0 -60 -4.5t-63 -18.5t-59.5 -40t-50.5 -68.5t-35 -104.5t-13 -147z" />
    <glyph glyph-name="colon" unicode=":" horiz-adv-x="420" 
d="M104 92q0 54 31 87.5t82 33.5q50 0 82.5 -32.5t32.5 -86.5q0 -56 -30 -90.5t-83 -34.5q-52 0 -83.5 32t-31.5 91zM104 928q0 54 31 87.5t82 33.5q50 0 82.5 -32.5t32.5 -86.5q0 -56 -30 -90.5t-83 -34.5q-52 0 -83.5 32t-31.5 91z" />
    <glyph glyph-name="semicolon" unicode=";" horiz-adv-x="410" 
d="M66 -252q23 58 39.5 112t27 107t13.5 108q1 23 1 47q0 32 -2 66h158q1 -14 1 -28q0 -50 -8 -99q-11 -64 -30 -125t-44.5 -117.5t-51.5 -105.5zM104 928q0 54 31 87.5t82 33.5q50 0 82.5 -32.5t32.5 -86.5q0 -56 -30 -90.5t-83 -34.5q-52 0 -83.5 32t-31.5 91z" />
    <glyph glyph-name="less" unicode="&#x3c;" horiz-adv-x="1456" 
d="M47 680v76l1362 598v-133l-1165 -500l1165 -498v-139z" />
    <glyph glyph-name="equal" unicode="=" horiz-adv-x="1311" 
d="M47 395v123h1217v-123h-1217zM47 907v123h1217v-123h-1217z" />
    <glyph glyph-name="greater" unicode="&#x3e;" horiz-adv-x="1456" 
d="M49 84v139l1165 498l-1165 500v133l1362 -598v-76z" />
    <glyph glyph-name="question" unicode="?" horiz-adv-x="862" 
d="M61 1239v143q36 21 84 39q41 14 98.5 26.5t129.5 12.5q81 0 155 -20.5t130 -65t89 -114.5t33 -168q0 -44 -8 -88t-27 -88t-50 -87.5t-77 -85.5l-141 -131q-28 -26 -45 -48t-26 -44.5t-12 -48t-3 -57.5v-90h-121v110q0 72 23 128t80 110l155 145q62 59 90.5 125t28.5 143
q0 51 -16 98.5t-51.5 84t-91 58.5t-134.5 22q-63 0 -117 -17.5t-93 -37.5q-46 -24 -83 -54zM227 92q0 51 28.5 82t76.5 31q46 0 76 -30.5t30 -80.5q0 -52 -27.5 -84.5t-76.5 -32.5q-50 0 -78.5 30.5t-28.5 84.5z" />
    <glyph glyph-name="at" unicode="@" horiz-adv-x="1944" 
d="M104 457q0 216 67.5 392.5t191.5 302t299.5 193.5t392.5 68q102 0 198 -20t180.5 -61t155 -102t121.5 -143t79 -184.5t28 -226.5q0 -96 -18 -186t-56 -168.5t-97 -142.5t-141 -107q-49 -26 -94 -41t-87 -22.5t-81.5 -9t-77.5 -1.5h-40q-21 0 -50 2l45 248
q-2 -5 -12.5 -23.5t-27.5 -44.5t-39.5 -55t-49.5 -53q-54 -50 -104 -68t-103 -18q-59 0 -106 20t-80 62t-50.5 108t-17.5 158q0 85 11.5 172t36 168.5t63.5 152.5t94 124t126.5 83.5t162.5 30.5q54 0 94.5 -11.5t67.5 -25.5q32 -17 55 -37l121 70l-154 -963h13q37 1 77 7
q33 5 73 16.5t75 32.5q118 69 179 195.5t61 309.5q0 151 -42 270.5t-124.5 201.5t-205.5 125.5t-286 43.5q-73 0 -160 -15t-174 -52t-168.5 -99t-144.5 -155.5t-101 -222t-38 -297.5q0 -174 48.5 -315t146 -240.5t245 -153t344.5 -53.5q106 0 190.5 16.5t143.5 36.5
q69 23 121 53l-11 -131q-45 -25 -110 -44q-56 -17 -140.5 -30.5t-199.5 -13.5q-226 0 -397 61.5t-286.5 175.5t-174 275.5t-58.5 360.5zM662 338q0 -83 14.5 -131t36.5 -73t48 -31.5t48 -6.5q54 0 100.5 32.5t96.5 92.5q24 29 47.5 64t43.5 72t34.5 74t19.5 71l59 393
q-16 18 -42 33q-22 12 -56 22.5t-82 10.5q-82 0 -141 -35t-100 -91t-66 -125.5t-38.5 -139t-18 -131t-4.5 -101.5z" />
    <glyph glyph-name="A" unicode="A" horiz-adv-x="1130" 
d="M-2 0l520 1446h109l503 -1446h-137l-180 520h-506l-184 -520h-125zM344 623h434l-153 444q-14 41 -25 78l-19 66q-9 33 -16 63q-6 -26 -16 -58q-8 -27 -20 -64l-27 -81z" />
    <glyph glyph-name="B" unicode="B" horiz-adv-x="1036" 
d="M154 0v1440h249q73 0 127 -3.5t95 -11t72 -19t57 -28.5q68 -43 103.5 -113.5t35.5 -166.5q0 -57 -10.5 -102t-28 -79.5t-39.5 -59.5t-45 -43q-55 -41 -123 -56q84 -7 151 -47q28 -17 55.5 -43.5t49 -64t34.5 -88t13 -116.5q0 -117 -49.5 -209t-148.5 -139
q-29 -14 -62 -23.5t-74.5 -15.5t-93.5 -9t-119 -3h-249zM289 106h176q67 0 129.5 10t110.5 41.5t77 90.5t29 158q0 69 -16.5 117.5t-44.5 80.5t-65.5 50t-78 27t-82.5 11t-80 2h-155v-588zM289 801h131q31 0 67.5 2t73.5 10.5t72 26t62 48t43 76.5t16 113q0 86 -25.5 137
t-69 77.5t-100.5 34t-121 7.5h-149v-532z" />
    <glyph glyph-name="C" unicode="C" horiz-adv-x="1143" 
d="M78 696q0 133 24 253.5t76 213.5q87 153 226.5 225t326.5 72q91 0 159 -13t114 -29q54 -18 92 -42v-143q-35 31 -88 57q-45 22 -113.5 40t-163.5 18q-121 0 -216.5 -41.5t-161.5 -121t-101 -195.5t-35 -265q0 -158 33.5 -275.5t98 -196.5t158.5 -118t214 -39
q96 0 166.5 19.5t118.5 43.5q55 28 94 64l-15 -145q-34 -27 -89 -47q-47 -18 -119 -32.5t-175 -14.5q-167 0 -285.5 56t-193.5 152.5t-110 226.5t-35 277z" />
    <glyph glyph-name="D" unicode="D" horiz-adv-x="1278" 
d="M154 0v1440h295q91 0 161 -3.5t127 -13t103.5 -27t91.5 -44.5q67 -42 117.5 -103t84 -139t50 -171t16.5 -198q0 -121 -18.5 -224.5t-57.5 -188t-99 -148.5t-144 -106q-50 -25 -102.5 -39.5t-109.5 -22t-119 -10t-130 -2.5h-266zM289 109h178q61 0 111 3.5t92 11t77.5 19
t67.5 27.5q60 31 106 84t77 124t47 158t16 187q0 205 -61.5 348t-180.5 205q-28 15 -58 25t-68 17t-87 10t-114 3h-203v-1222z" />
    <glyph glyph-name="E" unicode="E" horiz-adv-x="920" 
d="M154 0v1440h690v-109h-555v-532h467v-109h-467v-581h590l-7 -109h-718z" />
    <glyph glyph-name="F" unicode="F" horiz-adv-x="864" 
d="M154 0v1440h690v-109h-555v-532h467v-109h-467v-690h-135z" />
    <glyph glyph-name="G" unicode="G" horiz-adv-x="1268" 
d="M78 690q0 51 3.5 108.5t14.5 117.5t31.5 121t54.5 120q82 143 226 223t350 80q97 0 167 -13t117 -29q55 -18 93 -42v-143q-35 31 -89 57q-47 22 -118.5 40t-173.5 18q-142 0 -243.5 -49.5t-167 -134t-96 -198t-30.5 -241.5q0 -321 135.5 -476t397.5 -155q57 0 103.5 7
t78.5 15q38 10 67 23v502h136v-545q-38 -31 -98 -56q-51 -21 -132.5 -38.5t-197.5 -17.5q-144 0 -260.5 45.5t-198.5 134.5t-126 221t-44 305z" />
    <glyph glyph-name="H" unicode="H" horiz-adv-x="1274" 
d="M154 0v1440h135v-641h696v641h135v-1440h-135v688h-696v-688h-135z" />
    <glyph glyph-name="I" unicode="I" horiz-adv-x="442" 
d="M154 0v1440h135v-1440h-135z" />
    <glyph glyph-name="J" unicode="J" horiz-adv-x="489" 
d="M-41 119q11 -8 25 -14q12 -5 30 -9t41 -4q52 0 82 15t45 40.5t19 59t4 69.5v1164h135v-1141q0 -29 -1.5 -63.5t-9 -69.5t-23.5 -67.5t-44 -57.5t-71 -40t-105 -15q-29 0 -51.5 3t-37.5 7q-18 4 -30 10z" />
    <glyph glyph-name="K" unicode="K" horiz-adv-x="1051" 
d="M154 0v1440h135v-664l598 664h160l-611 -668l613 -772h-175l-585 745v-745h-135z" />
    <glyph glyph-name="L" unicode="L" horiz-adv-x="870" 
d="M154 0v1440h135v-1331h551l-6 -109h-680z" />
    <glyph glyph-name="M" unicode="M" horiz-adv-x="1577" 
d="M154 0v1440h196l400 -1102q13 -35 20.5 -61t11.5 -43q4 -20 6 -33q2 13 7 33l13 44q8 27 21 64l402 1098h192v-1440h-131v1343q-5 -33 -13 -70q-7 -32 -17.5 -71t-24.5 -78l-412 -1124h-86l-407 1124q-15 39 -25.5 78t-17.5 71q-8 37 -13 70v-1343h-122z" />
    <glyph glyph-name="N" unicode="N" horiz-adv-x="1270" 
d="M154 0v1440h118l619 -1002q32 -51 51.5 -87t30.5 -59q13 -27 20 -44v1192h123v-1440h-102l-643 1040q-32 52 -51 86t-29 54q-11 24 -15 37v-1217h-122z" />
    <glyph glyph-name="O" unicode="O" horiz-adv-x="1298" 
d="M78 686q0 185 39 329t112.5 243t178.5 150.5t237 51.5q135 0 242 -47.5t181.5 -138t113.5 -222t39 -300.5q0 -185 -39 -329.5t-112.5 -243.5t-179 -150.5t-237.5 -51.5q-135 0 -241.5 47.5t-181 138t-113.5 222.5t-39 301zM217 713q0 -311 109 -469t325 -158
q206 0 318 160.5t112 478.5q0 309 -109.5 468t-324.5 159q-206 0 -318 -160.5t-112 -478.5z" />
    <glyph glyph-name="P" unicode="P" horiz-adv-x="979" 
d="M154 0v1440h262q65 0 116 -3.5t92.5 -11.5t75 -21t64.5 -32q81 -51 122.5 -141t41.5 -203q0 -108 -27 -182.5t-70.5 -124t-98.5 -76.5t-110.5 -40.5t-107 -16t-88.5 -2.5h-137v-586h-135zM289 692h133q45 0 90 3.5t85.5 14.5t75.5 32.5t60.5 58t40 90t14.5 129.5
t-15.5 129t-42.5 87.5t-63.5 54t-77 29t-83.5 11.5t-84 2h-133v-641z" />
    <glyph glyph-name="Q" unicode="Q" horiz-adv-x="1298" 
d="M78 686q0 185 39 329t112.5 243t178.5 150.5t237 51.5q135 0 242 -47.5t181.5 -138t113.5 -222t39 -300.5q0 -179 -36.5 -319t-105 -238t-166.5 -153t-221 -62q15 -44 40 -84t63 -71t90.5 -49t122.5 -18q53 0 96 10.5t75 24.5q37 15 66 35v-115q-27 -17 -64 -30
q-32 -11 -77 -20t-105 -9q-101 0 -174.5 25.5t-126 70t-85.5 105t-52 129.5q-114 15 -204 69t-152 143t-94.5 212t-32.5 278zM217 713q0 -311 109 -469t325 -158q206 0 318 160.5t112 478.5q0 309 -109.5 468t-324.5 159q-206 0 -318 -160.5t-112 -478.5z" />
    <glyph glyph-name="R" unicode="R" horiz-adv-x="1022" 
d="M154 0v1440h215q57 0 106.5 -1.5t93 -7t82.5 -16t74 -29.5q82 -45 122 -121.5t40 -183.5q0 -105 -34 -181t-92 -124.5t-136 -72t-166 -23.5l536 -680h-170l-536 694v-694h-135zM289 776h139q59 0 116.5 10.5t102.5 42t73 88.5t28 150q0 90 -26.5 143t-71.5 80t-105 35
t-127 8h-129v-557z" />
    <glyph glyph-name="S" unicode="S" horiz-adv-x="938" 
d="M66 221q37 -36 90 -63q45 -23 110.5 -42.5t151.5 -19.5q70 0 126 16.5t95.5 49.5t60.5 82t21 114q0 55 -10.5 93.5t-32 68.5t-55 55t-78.5 54l-183 112l-97 62q-48 30 -85.5 71t-60.5 97t-23 137q0 69 22 132.5t70.5 112.5t127 78t192.5 29q76 0 132.5 -13t94.5 -29
q44 -18 74 -42v-141q-35 31 -82 56q-41 21 -98.5 39t-132.5 18q-125 0 -196 -55t-71 -175q0 -55 16 -94t43 -69t63 -54l77 -49l180 -109q42 -24 86 -53t80 -70.5t59 -100t23 -142.5q0 -95 -29.5 -168t-86.5 -123t-139 -76t-187 -26q-84 0 -146.5 14t-104.5 31q-49 19 -85 45
z" />
    <glyph glyph-name="T" unicode="T" horiz-adv-x="979" 
d="M10 1331v109h969l-6 -109h-416v-1331h-135v1331h-412z" />
    <glyph glyph-name="U" unicode="U" horiz-adv-x="1266" 
d="M143 563v877h136v-936q0 -48 2.5 -97.5t14 -95.5t34 -86.5t61.5 -70t98 -47t144 -17.5q89 0 151 17.5t102.5 48t63 72t33 89t12.5 99t2 102.5v922h125v-830q0 -86 -1.5 -154.5t-10 -125.5t-26.5 -104.5t-50 -90.5q-62 -83 -161 -118t-232 -35q-139 0 -237.5 31.5
t-161.5 107.5q-32 37 -51.5 83t-30 101t-14 119.5t-3.5 138.5z" />
    <glyph glyph-name="V" unicode="V" horiz-adv-x="1135" 
d="M8 1440h142l366 -1063q14 -42 24 -78l19 -66q9 -33 16 -63q7 26 17 58l19 64q12 36 28 81l377 1067h129l-520 -1446h-113z" />
    <glyph glyph-name="W" unicode="W" horiz-adv-x="1829" 
d="M20 1440h144l289 -1043q15 -54 27 -111t22 -116q9 57 23.5 116.5t31.5 114.5l303 1035v4h144l286 -1047q16 -54 30 -109t23 -114q10 57 24 115.5t30 113.5l291 1041h131l-426 -1448h-121l-287 1032l-63 231l-66 -227l-301 -1036h-121z" />
    <glyph glyph-name="X" unicode="X" horiz-adv-x="1120" 
d="M10 0l473 739l-440 701h156l376 -604l379 604h144l-455 -709l457 -731h-152l-397 631l-395 -631h-146z" />
    <glyph glyph-name="Y" unicode="Y" horiz-adv-x="1090" 
d="M4 1440h156l393 -754l408 754h143l-488 -871v-569h-135v563z" />
    <glyph glyph-name="Z" unicode="Z" horiz-adv-x="1108" 
d="M72 0v86l794 1245h-737v109h905v-84l-794 -1247h784l-6 -109h-946z" />
    <glyph glyph-name="bracketleft" unicode="[" horiz-adv-x="651" 
d="M164 -471v2048h323v-102h-196v-1844h196v-102h-323z" />
    <glyph glyph-name="backslash" unicode="\" horiz-adv-x="717" 
d="M68 1577h127l518 -1939h-125z" />
    <glyph glyph-name="bracketright" unicode="]" horiz-adv-x="651" 
d="M164 -369h196v1844h-196v102h323v-2048h-323v102z" />
    <glyph glyph-name="asciicircum" unicode="^" horiz-adv-x="1141" 
d="M82 479l450 1073h72l455 -1073h-139l-353 867l-348 -867h-137z" />
    <glyph glyph-name="underscore" unicode="_" horiz-adv-x="1024" 
d="M0 -162h1024v-80h-1024v80z" />
    <glyph glyph-name="grave" unicode="`" horiz-adv-x="1024" 
d="M287 1413l71 115l365 -254l-51 -80z" />
    <glyph glyph-name="a" unicode="a" horiz-adv-x="926" 
d="M74 289q0 79 21.5 133.5t57.5 90.5t82 57t96 31.5t99.5 14.5t91.5 7l131 8v108q0 23 -1 48t-7.5 49.5t-19.5 47t-36.5 40t-60.5 27.5t-90 10q-69 0 -118.5 -17.5t-81.5 -37.5q-38 -24 -64 -54v129q26 23 66 41q35 15 89.5 28t133.5 13q78 0 132 -15t89.5 -40t55 -58
t29 -69.5t11.5 -74.5t2 -73v-725l-125 -16v139q-23 -41 -62 -73q-33 -27 -88 -49.5t-136 -22.5q-78 0 -134 25t-92 66.5t-53.5 96.5t-17.5 115zM207 293q0 -33 9 -68t32.5 -63.5t64.5 -47t105 -18.5q48 0 91 16.5t75 45.5t50.5 68.5t18.5 86.5v224l-143 -13
q-65 -5 -120.5 -16t-96 -36t-63.5 -67.5t-23 -111.5z" />
    <glyph glyph-name="b" unicode="b" horiz-adv-x="1042" 
d="M154 -16v1566l129 27v-649q25 38 64 68q33 26 84.5 47.5t125.5 21.5q108 0 185 -43t125.5 -114.5t71 -165t22.5 -193.5q0 -161 -37 -269t-98.5 -174t-142 -94t-167.5 -28q-62 0 -108.5 13t-77.5 29q-37 18 -62 42zM283 164q22 -22 55 -39q28 -15 70.5 -27t99.5 -12
q162 0 240.5 111.5t78.5 330.5q0 121 -21 203t-60 131.5t-94 70.5t-122 21q-57 0 -103 -16t-78 -44.5t-49 -69t-17 -89.5v-571z" />
    <glyph glyph-name="c" unicode="c" horiz-adv-x="879" 
d="M82 514q0 126 28 228t84 173.5t140 110.5t196 39q81 0 136 -12t89 -26q40 -17 64 -38v-127q-26 28 -66 50q-34 19 -85 35t-123 16q-29 0 -64.5 -4t-72 -18.5t-71.5 -43t-62 -77.5t-43.5 -121.5t-16.5 -174.5q0 -98 17.5 -179t58 -138.5t106 -89t162.5 -31.5
q68 0 117.5 17t82.5 38q39 25 66 56l-12 -136q-27 -22 -67 -39q-35 -14 -88 -26t-128 -12q-48 0 -100 8t-101.5 29t-94.5 58.5t-78.5 96.5t-53.5 142t-20 196z" />
    <glyph glyph-name="d" unicode="d" horiz-adv-x="1042" 
d="M82 500q0 160 37 268.5t98.5 174.5t141.5 94t167 28q61 0 105 -12.5t73 -27.5q33 -18 56 -40v565l129 27v-1569l-125 -16v135q-24 -40 -64 -72q-34 -27 -87 -49t-128 -22q-108 0 -184.5 43t-125 114.5t-71 164.5t-22.5 194zM215 520q0 -121 21.5 -203t60.5 -131.5
t93.5 -70.5t121.5 -21q58 0 104 16t78 44.5t49 69t17 89.5v572q-23 21 -56 39q-28 14 -70 26.5t-99 12.5q-163 0 -241.5 -111.5t-78.5 -331.5z" />
    <glyph glyph-name="e" unicode="e" horiz-adv-x="965" 
d="M82 514q0 119 25 220t77.5 174.5t132.5 115t191 41.5q116 0 190.5 -42.5t117 -112.5t59 -159.5t16.5 -183.5v-32h-676q0 -101 15 -183.5t53 -141.5t104 -91.5t168 -32.5q71 0 124 17t89 38q42 25 72 56l-13 -136q-27 -22 -69 -39q-36 -14 -94 -26t-142 -12
q-51 0 -103.5 8t-101.5 29.5t-92 59.5t-74.5 96.5t-50 141.5t-18.5 195zM219 633h539q0 61 -10.5 120.5t-39 106.5t-78.5 76t-130 29q-61 0 -105.5 -18.5t-76 -48.5t-50.5 -67t-30 -74t-15 -70t-4 -54z" />
    <glyph glyph-name="f" unicode="f" horiz-adv-x="590" 
d="M96 944v103h111v217q0 66 7.5 120.5t35.5 98.5q35 55 87.5 74.5t117.5 19.5q36 0 62.5 -5t43.5 -10q20 -6 35 -14l-12 -108q-10 9 -27 17q-14 7 -37 12.5t-57 5.5q-35 0 -62 -13.5t-43 -38.5q-17 -26 -19.5 -64t-2.5 -75v-237h215v-103h-215v-944h-129v944h-111z" />
    <glyph glyph-name="g" unicode="g" horiz-adv-x="1042" 
d="M82 502q0 160 37 268t98.5 173.5t141.5 93.5t167 28q61 0 106 -12.5t74 -27.5q34 -18 58 -40v64h125v-1082q0 -50 -2.5 -90.5t-9.5 -74.5t-18.5 -62t-29.5 -53q-32 -47 -74 -77.5t-90.5 -48.5t-101 -25t-106.5 -7q-81 0 -138.5 12.5t-94.5 27.5q-43 18 -72 40l-11 133
q31 -31 78 -56q40 -21 99.5 -38t140.5 -17q36 0 72 5t69 16.5t62 31t51 48.5q15 21 24.5 47t14.5 53t6.5 54t1.5 51v190q-25 -39 -64 -69q-33 -26 -85.5 -47t-125.5 -21q-75 0 -134 21t-103.5 57t-76 85.5t-51.5 106.5t-29 118.5t-9 123.5zM215 522q0 -130 24.5 -212
t65.5 -128.5t94.5 -64t112.5 -17.5q58 0 104 16t78 44.5t49 69t17 89.5v566q-23 21 -56 39q-28 14 -70 26.5t-99 12.5q-162 0 -241 -113t-79 -328z" />
    <glyph glyph-name="h" unicode="h" horiz-adv-x="1055" 
d="M154 0v1550l129 27v-657q25 40 66 72q35 27 92.5 50t142.5 23t143 -23.5t96 -58.5q37 -34 57.5 -74.5t30 -82.5t11.5 -82.5t2 -73.5v-670h-129v645q0 34 -1.5 70t-9 70t-22.5 65t-43 54t-71 36.5t-105 13.5q-42 0 -87.5 -12t-84 -39t-63.5 -70t-25 -104v-729h-129z" />
    <glyph glyph-name="i" unicode="i" horiz-adv-x="436" 
d="M135 1421q0 41 23 63.5t61 22.5q35 0 59.5 -22t24.5 -60q0 -40 -24 -63t-62 -23q-35 0 -58.5 22.5t-23.5 59.5zM154 0v1049h129v-1049h-129z" />
    <glyph glyph-name="j" unicode="j" horiz-adv-x="451" 
d="M-78 -342q11 -8 25 -14q12 -5 30 -9t41 -4q52 0 82 15.5t45 41t19 59t4 69.5v1233h129v-1209q0 -28 -1.5 -62t-9 -68.5t-23 -67t-43.5 -57.5t-71.5 -40.5t-105.5 -15.5q-28 0 -49 3t-35 7q-17 4 -29 10zM150 1421q0 41 22.5 63.5t60.5 22.5q36 0 60 -22t24 -60
q0 -40 -23.5 -63t-62.5 -23q-35 0 -58 22.5t-23 59.5z" />
    <glyph glyph-name="k" unicode="k" horiz-adv-x="856" 
d="M154 0v1550l129 27v-989l413 461h156l-428 -467l432 -582h-160l-413 559v-559h-129z" />
    <glyph glyph-name="l" unicode="l" horiz-adv-x="436" 
d="M154 0v1550l129 27v-1577h-129z" />
    <glyph glyph-name="m" unicode="m" horiz-adv-x="1692" 
d="M154 0v1049h125v-131q25 40 66 73q35 28 92.5 51t142.5 23q43 0 79 -7t64.5 -18t50.5 -25t38 -29q38 -35 58 -79q30 44 77 79q20 15 45.5 29t57.5 25t70.5 18t83.5 7q87 0 146.5 -23.5t97.5 -58.5q37 -34 57 -74.5t29.5 -82.5t11.5 -82.5t2 -73.5v-670h-129v645
q0 34 -1.5 70t-8.5 70t-22.5 65t-43 54t-69.5 36.5t-103 13.5q-44 0 -89 -12.5t-82.5 -40t-61 -70t-23.5 -102.5v-729h-129v645q0 35 -1.5 71.5t-9 71t-22.5 65t-42.5 53t-69.5 35.5t-102 13q-44 0 -89.5 -12.5t-82.5 -40t-60.5 -70t-23.5 -102.5v-729h-129z" />
    <glyph glyph-name="n" unicode="n" horiz-adv-x="1067" 
d="M154 0v1049h125v-131q26 40 68 73q36 28 94 51t143 23t143 -23.5t96 -58.5q37 -34 57.5 -74.5t30 -82.5t11.5 -82.5t2 -73.5v-670h-129v645q0 34 -1.5 70t-9 70t-22.5 65t-43 54t-71 36.5t-105 13.5q-42 0 -87.5 -12t-84 -39t-63.5 -70t-25 -104v-729h-129z" />
    <glyph glyph-name="o" unicode="o" horiz-adv-x="1018" 
d="M82 506q0 120 25 222.5t78.5 177.5t136 117t196.5 42q96 0 173.5 -35t131.5 -102.5t83.5 -166.5t29.5 -226q0 -121 -25 -223.5t-78.5 -177.5t-136 -117t-196.5 -42q-96 0 -173.5 35t-131.5 103t-83.5 166.5t-29.5 226.5zM215 518q0 -84 14 -162.5t48 -140t91 -98.5
t142 -37q75 0 130.5 31t91.5 88t53.5 139t17.5 184q0 84 -14 163t-48 140.5t-91 98.5t-142 37q-75 0 -130.5 -31t-91.5 -88.5t-53.5 -139.5t-17.5 -184z" />
    <glyph glyph-name="p" unicode="p" horiz-adv-x="1042" 
d="M154 -471v1520h125v-127q25 39 64 71q33 27 85.5 49.5t128.5 22.5q108 0 185 -43t125.5 -114.5t71 -165t22.5 -193.5q0 -161 -37 -269t-98.5 -174t-142 -94t-167.5 -28q-59 0 -102.5 11.5t-72.5 25.5q-34 17 -58 38v-530h-129zM283 164q22 -22 55 -39q28 -15 70.5 -27
t99.5 -12q162 0 240.5 111.5t78.5 330.5q0 121 -21 203t-60 131.5t-94 70.5t-122 21q-57 0 -103 -16t-78 -44.5t-49 -69t-17 -89.5v-571z" />
    <glyph glyph-name="q" unicode="q" horiz-adv-x="1042" 
d="M82 500q0 160 37 268.5t98.5 174.5t141.5 94t167 28q61 0 106 -12.5t74 -27.5q34 -18 58 -40v64h125v-1520h-125v598q-18 -29 -44 -54.5t-61 -45.5t-78.5 -31.5t-95.5 -11.5q-108 0 -184.5 43t-125 114.5t-71 164.5t-22.5 194zM215 520q0 -121 21.5 -203t60.5 -131.5
t93.5 -70.5t121.5 -21q58 0 104 16t78 44.5t49 69t17 89.5v572q-23 21 -56 39q-28 14 -70 26.5t-99 12.5q-163 0 -241.5 -111.5t-78.5 -331.5z" />
    <glyph glyph-name="r" unicode="r" horiz-adv-x="655" 
d="M154 0v1049h125v-148q20 46 53 82q28 31 73.5 56.5t110.5 25.5q33 0 58 -6t42 -13q20 -8 35 -18l-12 -121q-14 12 -35 22q-18 8 -46.5 15.5t-68.5 7.5q-53 0 -91.5 -23t-64 -59.5t-38 -83t-12.5 -94.5v-692h-129z" />
    <glyph glyph-name="s" unicode="s" horiz-adv-x="770" 
d="M70 203q31 -33 74 -59q37 -22 92.5 -40t130.5 -18q46 0 84.5 9.5t66.5 29.5t44 51.5t16 75.5q0 34 -6 59.5t-22.5 47t-46 42t-75.5 45.5l-119 66q-33 18 -70.5 41.5t-69 56.5t-52.5 78t-21 107q0 58 15 101t40 73t57.5 48.5t67.5 29t70.5 14.5t65.5 4q60 0 106 -12
t77 -26q36 -17 62 -38v-127q-28 28 -66 50q-32 19 -78 35t-105 16q-68 0 -106.5 -18.5t-57 -44t-23 -51t-4.5 -40.5q0 -42 11 -70t31.5 -48.5t50 -37.5t67.5 -37l117 -61q43 -22 80 -47t64.5 -58t43.5 -75.5t16 -100.5q0 -84 -30 -140t-78.5 -89.5t-109.5 -47t-122 -13.5
q-71 0 -123 13t-87 30q-40 18 -68 43z" />
    <glyph glyph-name="t" unicode="t" horiz-adv-x="608" 
d="M72 944v103h110v190l129 37v-227h256v-103h-256v-680q0 -42 5 -72.5t18 -50.5q15 -24 40.5 -37.5t63.5 -13.5q35 0 59.5 6.5t41.5 14.5q19 10 32 22l-8 -117q-15 -8 -35 -14q-17 -5 -42.5 -9.5t-59.5 -4.5q-32 0 -61 3.5t-54.5 13.5t-47.5 27.5t-40 45.5q-15 21 -23 45
t-12 51.5t-5 60t-1 70.5v639h-110z" />
    <glyph glyph-name="u" unicode="u" horiz-adv-x="1067" 
d="M143 379v670h129v-650q0 -53 4.5 -107t28.5 -98t75 -72t144 -28q42 0 87.5 12t84 39t63.5 70t25 104v730h129v-1041l-125 -16v139q-26 -41 -68 -74q-36 -28 -94 -50.5t-143 -22.5t-142 21t-95 56q-37 34 -58 75t-31 83t-12 83.5t-2 76.5z" />
    <glyph glyph-name="v" unicode="v" horiz-adv-x="858" 
d="M-4 1049h137l236 -676q14 -41 24 -77l19 -63l16 -59q7 24 17 55l19 61q12 36 28 81l241 678h125l-389 -1057h-94z" />
    <glyph glyph-name="w" unicode="w" horiz-adv-x="1423" 
d="M10 1049h142l182 -654l16 -62l16 -64l14 -58q6 -27 9 -43q4 20 11 48l15 60q8 32 17 62.5t17 54.5l208 656h134l194 -654l19 -69l17 -64q8 -30 12.5 -54.5t6.5 -39.5l12 52l15 60l16 62q8 30 15 53l194 654h125l-336 -1057h-100l-203 684l-63 215l-70 -223l-213 -676
h-100z" />
    <glyph glyph-name="x" unicode="x" horiz-adv-x="891" 
d="M20 0l359 539l-330 510h150l262 -408l250 408h139l-330 -498l354 -551h-147l-291 449l-274 -449h-142z" />
    <glyph glyph-name="y" unicode="y" horiz-adv-x="858" 
d="M-27 -340q10 -9 27 -15q14 -5 37.5 -9.5t58.5 -4.5q71 0 115 47t78 138l80 217l-373 1016h137l254 -719q15 -45 24 -75t14 -50q5 -23 7 -37q4 19 11 44l14 50q9 30 22 66l254 721h125l-432 -1188q-23 -65 -48 -124.5t-62 -106t-90 -74t-132 -27.5q-28 0 -49 3t-35 7
q-17 4 -28 10z" />
    <glyph glyph-name="z" unicode="z" horiz-adv-x="877" 
d="M59 0v80l580 868h-537v101h695v-80l-582 -869h580l-7 -100h-729z" />
    <glyph glyph-name="braceleft" unicode="{" horiz-adv-x="780" 
d="M102 518v94q101 0 148 71.5t47 205.5v405q0 52 11.5 102t39.5 88t75.5 61.5t119.5 23.5q28 0 58.5 -4t45.5 -11l-8 -110q-12 6 -31.5 11t-44.5 5q-44 0 -71 -16t-42 -44t-20.5 -66t-5.5 -83v-362q0 -46 -4 -94t-20.5 -91.5t-50.5 -80t-93 -58.5q61 -13 95 -49.5
t50.5 -84.5t19.5 -101.5t3 -100.5v-372q0 -45 5.5 -83t20.5 -66t42.5 -44t72.5 -16q23 0 44.5 5.5t33.5 10.5l-8 -110q-16 -7 -40 -11t-52 -4q-72 0 -119.5 23.5t-75.5 61.5t-39.5 87.5t-11.5 102.5v422q0 136 -46.5 209t-148.5 73z" />
    <glyph glyph-name="bar" unicode="|" horiz-adv-x="504" 
d="M186 -362v1939h129v-1939h-129z" />
    <glyph glyph-name="braceright" unicode="}" horiz-adv-x="780" 
d="M133 1554q16 7 46.5 11t58.5 4q72 0 119.5 -23.5t75 -61.5t39 -88t11.5 -102v-405q0 -134 47.5 -205.5t147.5 -71.5v-94q-102 0 -148.5 -72.5t-46.5 -209.5v-422q0 -53 -11.5 -102.5t-39 -87.5t-75 -61.5t-119.5 -23.5q-28 0 -52.5 4t-40.5 11l-8 110q13 -5 34 -10.5
t44 -5.5q45 0 72.5 16t42.5 44t20.5 66t5.5 83v372q0 47 3 100.5t19.5 101.5t50 84.5t95.5 49.5q-59 22 -92.5 58.5t-50.5 80t-21 91.5t-4 94v362q0 45 -5.5 83t-20.5 66t-42 44t-71 16q-25 0 -44 -5t-32 -11z" />
    <glyph glyph-name="asciitilde" unicode="~" horiz-adv-x="1430" 
d="M37 512q9 42 21 84q11 36 26 77.5t35 78.5q45 80 108 113.5t148 33.5q36 0 72.5 -6.5t73 -17t71.5 -23.5l70 -27l161 -61q49 -18 84 -29.5t61 -18t47 -9t42 -2.5q48 0 91 17t77 54q23 26 39 54.5t27 53.5q12 29 20 58l82 -27q-9 -35 -21 -73q-11 -32 -26 -71t-35 -75
q-45 -80 -108 -113.5t-148 -33.5q-36 0 -73 6.5t-73 17t-71 24.5l-70 26l-160 61q-49 19 -85 30.5t-63 18t-48.5 8.5t-42.5 2q-28 0 -50.5 -4t-41.5 -13t-35.5 -23t-32.5 -33q-23 -28 -39 -60.5t-27 -60.5q-12 -33 -20 -66z" />
    <glyph glyph-name="uni0080" 
d="M-6 498l20 102h146q-2 23 -2 50v48v52q0 27 2 53h-142l21 102h131q9 72 25.5 133.5t42.5 118.5q68 149 188 226t272 77q74 0 128.5 -13t90.5 -29q42 -18 72 -42v-143q-30 31 -72 57q-36 22 -90.5 40t-128.5 18q-111 0 -194.5 -56t-134.5 -159q-23 -48 -39 -103.5
t-25 -124.5h533l-21 -102h-520q-2 -20 -2 -44v-44q0 -28 1 -59t3 -56h479l-20 -102h-453q9 -72 32.5 -143.5t68 -129t114 -93.5t170.5 -36q72 0 128 16t94 36q45 23 77 53l-12 -146q-31 -20 -74 -36q-37 -14 -92 -24.5t-129 -10.5q-112 0 -193 31t-137 79t-90.5 107.5
t-54.5 116.5t-28 105.5t-11 74.5h-174z" />
    <glyph glyph-name="Zcaron" horiz-adv-x="1108" 
d="M72 0v86l794 1245h-737v109h905v-84l-794 -1247h784l-6 -109h-946zM270 1788l78 90l250 -207l235 203l62 -76l-318 -268z" />
    <glyph glyph-name="Zcaron" unicode="&#x17d;" horiz-adv-x="1108" 
d="M72 0v86l794 1245h-737v109h905v-84l-794 -1247h784l-6 -109h-946zM270 1788l78 90l250 -207l235 203l62 -76l-318 -268z" />
    <glyph glyph-name="zcaron" horiz-adv-x="909" 
d="M59 0v80l580 868h-537v101h695v-80l-582 -869h580l-7 -100h-729zM132 1450l78 90l250 -207l235 203l62 -76l-318 -268z" />
    <glyph glyph-name="zcaron" unicode="&#x17e;" horiz-adv-x="909" 
d="M59 0v80l580 868h-537v101h695v-80l-582 -869h580l-7 -100h-729zM132 1450l78 90l250 -207l235 203l62 -76l-318 -268z" />
    <glyph glyph-name="uni00A0" unicode="&#xa0;" horiz-adv-x="410" 
 />
    <glyph glyph-name="exclamdown" unicode="&#xa1;" horiz-adv-x="535" 
d="M162 1335q0 53 27.5 85t76.5 32q50 0 78.5 -30.5t28.5 -84.5q0 -51 -28.5 -81.5t-76.5 -30.5q-46 0 -76 30.5t-30 79.5zM199 -10l12 1116h113l14 -1086z" />
    <glyph glyph-name="cent" unicode="&#xa2;" 
d="M143 711q0 116 24 211.5t71.5 166t119.5 114t168 54.5v179l107 24v-200q69 -4 116 -15.5t76 -24.5q34 -15 56 -34v-127q-24 25 -60 46q-31 17 -77.5 33t-110.5 19v-874q65 2 112 19t79 37q37 24 63 54l-13 -135q-24 -19 -58 -35q-29 -14 -74.5 -26.5t-108.5 -16.5v-196
h-107v198q-68 7 -136 34t-123 87t-89.5 158.5t-34.5 249.5zM276 721q0 -85 13 -158t42.5 -129.5t77 -94t117.5 -52.5v868q-43 -8 -87.5 -30.5t-80.5 -71.5t-59 -129.5t-23 -202.5z" />
    <glyph glyph-name="sterling" unicode="&#xa3;" 
d="M14 80q20 10 38 23q16 11 33.5 26t31.5 33q21 27 40.5 68t37 105t33 155t30.5 219h-170v102h178q14 125 28.5 224.5t37.5 168.5q17 50 46 96t73.5 81t106.5 56.5t144 22.5q72 0 123.5 -13t85.5 -29q40 -18 66 -42v-143q-26 31 -66 57q-34 22 -85.5 40t-123.5 18
q-19 0 -49 -3.5t-62 -17t-62.5 -39.5t-51.5 -71q-15 -33 -25 -71.5t-18.5 -87.5t-16.5 -109l-16 -138h381v-102h-391q-12 -105 -24.5 -184.5t-26.5 -138t-30.5 -99t-35.5 -66.5q-26 -37 -49 -63.5t-39 -40.5q10 5 31.5 10.5t47 10t51.5 7t46 2.5q44 0 82.5 -4t67.5 -10
l150 -33q17 -3 50 -7.5t68 -4.5q68 0 117 25.5t78 56.5l-8 -147q-39 -31 -90 -40.5t-101 -9.5q-57 0 -109 7t-102 18l-155 33q-32 6 -69.5 9t-74.5 3q-26 0 -53.5 -3.5t-54.5 -11t-51.5 -18.5t-43.5 -26z" />
    <glyph glyph-name="currency" unicode="&#xa4;" horiz-adv-x="1243" 
d="M139 338l140 133q-29 38 -47.5 70t-29.5 63t-15.5 63.5t-4.5 71.5q0 37 4.5 69t16 63.5t30 64.5t46.5 72l-140 133l72 67l137 -131q39 26 71 44t63.5 28.5t64.5 15t74 4.5q40 0 73.5 -4.5t65 -15.5t64.5 -29t71 -45l135 133l72 -67l-137 -133q27 -39 45.5 -71.5t30 -64
t16 -63.5t4.5 -70q0 -39 -4.5 -71.5t-15.5 -63.5t-29.5 -63t-46.5 -70l137 -133l-72 -70l-135 129q-38 -26 -71 -43t-64.5 -27.5t-65 -15t-73.5 -4.5t-73.5 4.5t-65 15t-63.5 28t-71 44.5l-137 -131zM311 739q0 -68 24.5 -125.5t66.5 -99.5t99 -66t122 -24q63 0 119 24
t98.5 66t67 99.5t24.5 125.5q0 70 -24.5 128t-67 99t-98.5 64t-119 23q-65 0 -122 -23.5t-99 -65t-66.5 -99t-24.5 -126.5z" />
    <glyph glyph-name="yen" unicode="&#xa5;" 
d="M0 1440h160l352 -723l367 723h141l-391 -725h270v-103h-324v-190h324v-103h-324v-319h-135v319h-323v103h323v190h-323v103h262z" />
    <glyph glyph-name="brokenbar" unicode="&#xa6;" horiz-adv-x="1085" 
d="M475 332h129v-694h-129v694zM475 715v725h129v-725h-129z" />
    <glyph glyph-name="section" unicode="&#xa7;" horiz-adv-x="1143" 
d="M178 627q0 72 25.5 129.5t66 101.5t91.5 76.5t102 54.5l-39 29q-29 21 -55 47.5t-46 59t-32 72t-12 85.5q0 23 5.5 54t20.5 63.5t40 64.5t64.5 57t94 40.5t127.5 15.5t124.5 -12t84.5 -26q39 -17 63 -38v-147q-29 30 -69 55q-35 20 -87 37.5t-122 17.5q-47 0 -85.5 -12
t-66 -35t-42.5 -55.5t-15 -73.5q0 -32 9 -59.5t26 -51t41 -44t53 -39.5l215 -144q30 -20 64.5 -46.5t64.5 -62.5t49.5 -84t19.5 -110q0 -53 -13.5 -98t-35.5 -83t-50.5 -69t-59 -56t-60.5 -45l-55 -34l35 -26q31 -25 57.5 -52.5t45.5 -59.5t29.5 -70.5t10.5 -84.5
q0 -41 -16.5 -91.5t-55.5 -94t-105 -73t-165 -29.5q-81 0 -138 12.5t-93 28.5q-42 18 -70 42v144q30 -32 74 -58q38 -22 94.5 -39.5t134.5 -17.5q44 0 81 10.5t64 31.5t42.5 52.5t15.5 73.5q0 35 -9 63.5t-25 51.5t-38.5 42.5t-50.5 37.5l-211 133q-31 19 -68 51t-69.5 75
t-54 96.5t-21.5 115.5zM317 641q0 -34 7.5 -65t27 -62t53.5 -63t87 -66l94 -61q40 24 81 51.5t75 63t55.5 79.5t21.5 100q0 36 -7 68t-23.5 60.5t-44.5 55.5t-70 54l-113 72q-41 -19 -84.5 -44.5t-79 -60t-58 -79.5t-22.5 -103z" />
    <glyph glyph-name="dieresis" unicode="&#xa8;" horiz-adv-x="1024" 
d="M264 1337q0 41 24 64.5t64 23.5q35 0 59.5 -22.5t24.5 -63.5q0 -40 -24 -64t-64 -24q-35 0 -59.5 23t-24.5 63zM594 1337q0 41 24 64.5t64 23.5q35 0 59.5 -22.5t24.5 -63.5q0 -40 -24 -64t-64 -24q-35 0 -59.5 23t-24.5 63z" />
    <glyph glyph-name="copyright" unicode="&#xa9;" horiz-adv-x="1796" 
d="M100 645q0 179 60 329t167.5 258.5t257 169t328.5 60.5q180 0 326 -60t249.5 -167t159.5 -255t56 -325q0 -178 -58.5 -329t-164.5 -261.5t-252.5 -172.5t-323.5 -62t-325 61t-254.5 169.5t-166 258t-59.5 326.5zM225 645q0 -153 49 -284t138.5 -228t214.5 -152t278 -55
q154 0 279 55.5t213.5 153t136 231t47.5 289.5q0 151 -46.5 281t-133 225t-210.5 149t-278 54q-157 0 -284 -54.5t-217 -150.5t-138.5 -228t-48.5 -286zM451 629q0 93 21 173.5t58 145.5q30 53 73 93t95.5 66.5t112.5 40t125 13.5q66 0 114.5 -9t80.5 -20q38 -12 65 -28
v-129q-25 23 -61 41q-32 15 -79.5 28t-113.5 13q-85 0 -151.5 -29t-112 -83t-69 -129.5t-23.5 -168.5q0 -103 23.5 -181t68.5 -130.5t109.5 -79.5t146.5 -27q67 0 117 13t83 30q39 18 66 43l-10 -120q-25 -19 -63 -34q-32 -13 -82.5 -23.5t-122.5 -10.5q-121 0 -209.5 40
t-146.5 108t-86.5 159.5t-28.5 194.5z" />
    <glyph glyph-name="ordfeminine" unicode="&#xaa;" horiz-adv-x="758" 
d="M72 881q0 59 16.5 100t43.5 68.5t62.5 43.5t74 24.5t76.5 12t71 5.5l88 6v78q0 25 -5.5 52t-21.5 49.5t-46 37t-79 14.5q-52 0 -89 -13t-61 -28q-28 -18 -48 -41v109q18 17 49 30q26 11 67 21t101 10t101 -11t68 -29.5t42 -43t22 -52t8.5 -56t1.5 -54.5v-544l-98 -13v105
q-17 -31 -46 -55q-25 -20 -66 -37t-103 -17t-105 18.5t-71 50t-40.5 73t-12.5 86.5zM186 883q0 -23 6.5 -47t23 -43.5t46 -32t74.5 -12.5q35 0 66 11.5t54 32t36.5 49t13.5 62.5v156l-103 -10q-47 -5 -86.5 -13t-68.5 -25t-45.5 -47.5t-16.5 -80.5z" />
    <glyph glyph-name="guillemotleft" unicode="&#xab;" horiz-adv-x="889" 
d="M102 516l215 408h127l-190 -406l190 -407h-127zM461 516l215 408h127l-191 -406l191 -407h-127z" />
    <glyph glyph-name="logicalnot" unicode="&#xac;" horiz-adv-x="1311" 
d="M47 721v121h1217v-461h-123v340h-1094z" />
    <glyph glyph-name="uni00AD" unicode="&#xad;" horiz-adv-x="666" 
d="M84 479v129h498v-129h-498z" />
    <glyph glyph-name="registered" unicode="&#xae;" horiz-adv-x="1804" 
d="M100 645q0 179 60 329t167.5 258.5t257 169t328.5 60.5q180 0 326 -60t249.5 -167t159.5 -255t56 -325q0 -178 -58.5 -329t-164.5 -261.5t-252.5 -172.5t-323.5 -62t-325 61t-254.5 169.5t-166 258t-59.5 326.5zM225 645q0 -153 49 -284t138.5 -228t214.5 -152t278 -55
q154 0 279 55.5t213.5 153t136 231t47.5 289.5q0 151 -46.5 281t-133 225t-210.5 149t-278 54q-157 0 -284 -54.5t-217 -150.5t-138.5 -228t-48.5 -286zM623 139v1043h172q86 0 153 -6t121 -35q62 -32 98.5 -91.5t36.5 -146.5q0 -80 -26.5 -138t-69.5 -95.5t-99 -55.5
t-114 -18l379 -457h-154l-375 463v-463h-122zM745 680h95q44 0 86.5 8t75.5 30.5t53 63t20 105.5q0 62 -19 101t-52 60.5t-77.5 29t-95.5 7.5h-86v-405z" />
    <glyph glyph-name="macron" unicode="&#xaf;" horiz-adv-x="1024" 
d="M217 1268v112h590v-112h-590z" />
    <glyph glyph-name="degree" unicode="&#xb0;" horiz-adv-x="893" 
d="M129 1229q0 66 24.5 124t67.5 100.5t100.5 67.5t122.5 25q67 0 125.5 -25t101.5 -67.5t68 -100.5t25 -124t-25 -124t-68 -101t-101.5 -68t-125.5 -25q-65 0 -122.5 25t-100.5 68t-67.5 101t-24.5 124zM233 1229q0 -45 16 -85t44.5 -70t67 -48t83.5 -18t84.5 18t68.5 48
t45.5 70t16.5 85q0 47 -16.5 87t-45.5 69.5t-68.5 46t-84.5 16.5t-83.5 -16.5t-67 -46t-44.5 -69.5t-16 -87z" />
    <glyph glyph-name="plusminus" unicode="&#xb1;" horiz-adv-x="1311" 
d="M47 0v121h1217v-121h-1217zM47 827v121h543v559h131v-559h543v-121h-543v-561h-131v561h-543z" />
    <glyph glyph-name="uni00B2" unicode="&#xb2;" horiz-adv-x="721" 
d="M70 580v106l91 91l83 85l82 88q41 48 67 84t40.5 66t20 55.5t5.5 52.5q0 24 -7 49t-24 46t-47 34t-76 13q-48 0 -85.5 -12.5t-64.5 -26.5q-32 -18 -57 -39v133q28 15 63 27q29 11 69.5 19.5t88.5 8.5q77 0 129.5 -20.5t85 -54t46.5 -76t14 -86.5q0 -47 -9.5 -87
t-31.5 -80t-56.5 -83t-84.5 -96l-74 -77l-57 -56l-50 -46h371v-118h-532z" />
    <glyph glyph-name="uni00B3" unicode="&#xb3;" horiz-adv-x="721" 
d="M82 737q28 -20 61 -35q29 -13 67.5 -23.5t84.5 -10.5q40 0 73.5 8t57.5 25.5t37.5 45t13.5 66.5q0 48 -18 78.5t-49.5 48t-74 24.5t-91.5 7h-19v104h21q36 0 71.5 7t63.5 24.5t45.5 47.5t17.5 77q0 63 -38 95t-107 32q-43 0 -78.5 -10.5t-61.5 -23.5q-31 -15 -55 -34v119
q25 14 58 25q28 10 67 18t90 8q128 0 194.5 -56t66.5 -161q0 -42 -12 -74t-31 -55t-41 -38.5t-42.5 -25t-35.5 -14t-19 -4.5q104 -6 158.5 -61.5t54.5 -149.5q0 -74 -27.5 -123.5t-72 -79.5t-100 -42.5t-111.5 -12.5q-55 0 -95 8t-66 19q-31 12 -52 28z" />
    <glyph glyph-name="acute" unicode="&#xb4;" horiz-adv-x="1024" 
d="M285 1274l364 254l72 -115l-385 -219z" />
    <glyph glyph-name="uni00B5" unicode="&#xb5;" horiz-adv-x="1253" 
d="M76 -371q22 11 43 26q17 13 36 32t31 45q12 24 18 55t9 62.5t3.5 62.5t0.5 55v725q0 53 -1 90.5t-3.5 63.5t-7.5 43t-12 29q-13 20 -29 29.5t-30 14.5q-17 5 -34 5v34q18 -1 43 0q21 1 52 4t71 11q29 5 48 10t30 10q13 5 21 11l8 -5q-3 -18 -6 -67q-2 -43 -3.5 -124
t-1.5 -220v-176q0 -88 11 -168q14 -106 87.5 -160.5t190.5 -54.5q46 0 88.5 10t75.5 23q39 15 72 34v553q0 53 -0.5 90.5t-2.5 63.5t-6.5 43t-13.5 29q-13 19 -28.5 29t-29.5 15q-17 5 -34 5v34q11 -1 29 1q16 2 42.5 4.5t67.5 9.5q29 4 50.5 9t36.5 10q18 5 30 12l6 -5
q-1 -27 -2 -81q-1 -47 -1.5 -126.5t-0.5 -205.5v-387q0 -24 1.5 -50t9.5 -47t25.5 -35t49.5 -14q23 0 35 7q6 4 10 8l21 -21q-17 -30 -41 -53q-20 -20 -50.5 -36.5t-72.5 -16.5q-29 0 -52 10t-39 26.5t-25 39t-9 46.5v9q-16 -16 -45.5 -38.5t-69 -43t-88 -35t-102.5 -14.5
q-66 0 -112 15.5t-75 35.5q-34 22 -55 51v-418q-31 -5 -58.5 -11.5t-58.5 -12.5q-23 -5 -47.5 -12t-44.5 -15l-47 -18z" />
    <glyph glyph-name="paragraph" unicode="&#xb6;" horiz-adv-x="840" 
d="M61 1042q0 94 32.5 168t94.5 125t151 78t202 27h196l-6 -103h-110v-1339q0 -56 -4 -100.5t-19 -81.5q-28 -68 -94 -101.5t-160 -33.5q-48 0 -91 10.5t-69 21.5l-8 117q28 -14 70 -30.5t98 -16.5q83 0 115.5 47t32.5 133v692h-33q-88 0 -161 29.5t-125.5 81t-82 122.5
t-29.5 154z" />
    <glyph glyph-name="periodcentered" unicode="&#xb7;" horiz-adv-x="420" 
d="M86 616q0 60 34.5 97t90.5 37q54 0 90.5 -36t36.5 -96q0 -61 -34 -99t-91 -38t-92 35t-35 100z" />
    <glyph glyph-name="cedilla" unicode="&#xb8;" horiz-adv-x="879" 
d="M274 -309q10 -9 25 -16q12 -6 30.5 -10.5t43.5 -4.5q27 0 43.5 7.5t26 18.5t13 24t3.5 24q0 29 -10 46.5t-31 33.5l-30 20q-15 11 -26.5 25.5t-18.5 34.5t-7 49q0 28 5 46q2 10 5 17h98q-2 -5 -3 -11q-3 -11 -3 -32q0 -32 20 -50t48 -38t47.5 -52.5t19.5 -86.5
q0 -31 -10 -61.5t-32.5 -55t-60 -40t-91.5 -15.5q-23 0 -41 3t-30 7q-14 4 -25 10z" />
    <glyph glyph-name="uni00B9" unicode="&#xb9;" horiz-adv-x="598" 
d="M70 1245v105q27 4 59.5 13t65 20.5t62 26t50.5 30.5h96v-860h-135v702z" />
    <glyph glyph-name="ordmasculine" unicode="&#xba;" horiz-adv-x="856" 
d="M113 1044q0 91 19 167t58.5 131.5t101.5 86.5t148 31q72 0 130.5 -25.5t99 -76t62.5 -124t22 -169.5q0 -91 -19 -167t-59 -131.5t-102 -86.5t-148 -31q-72 0 -130 25.5t-98.5 76t-62.5 124t-22 169.5zM229 1053q0 -59 10 -114t33.5 -98.5t63 -69.5t98.5 -26q53 0 91.5 22
t64 62.5t37.5 98t12 129.5q0 58 -10 113.5t-33.5 99t-63.5 70t-100 26.5q-52 0 -90.5 -22t-63.5 -63t-37 -99t-12 -129z" />
    <glyph glyph-name="guillemotright" unicode="&#xbb;" horiz-adv-x="889" 
d="M86 111l190 405l-190 408h127l215 -406l-215 -407h-127zM444 111l191 405l-191 408h127l215 -406l-215 -407h-127z" />
    <glyph glyph-name="onequarter" unicode="&#xbc;" horiz-adv-x="1489" 
d="M31 1245v105q27 4 59.5 13t65 20.5t62 26t50.5 30.5h97v-860h-136v702zM106 0l1047 1440h135l-1042 -1440h-140zM760 199v112l407 566h119v-574h96v-104h-96v-199h-129v199h-397zM868 303h289v410q-3 -9 -9 -20q-5 -10 -15 -25.5t-25 -36.5z" />
    <glyph glyph-name="onehalf" unicode="&#xbd;" horiz-adv-x="1489" 
d="M10 1245v105q27 4 60 13t65.5 20.5t62 26t50.5 30.5h96v-860h-135v702zM45 0l1047 1440h135l-1043 -1440h-139zM879 0v106l91 91l83 85l82 89q41 48 67 84t40.5 65.5t20 55.5t5.5 53q0 24 -7 49t-24 45.5t-47 33.5t-76 13q-48 0 -85.5 -12.5t-64.5 -26.5q-32 -18 -57 -39
v133q29 16 63 28q29 11 69.5 19.5t88.5 8.5q77 0 129.5 -20.5t85 -54t46.5 -76t14 -87.5q0 -47 -9.5 -87t-31.5 -80t-56.5 -83t-84.5 -96l-75 -77l-56 -56l-50 -45h371v-119h-532z" />
    <glyph glyph-name="threequarters" unicode="&#xbe;" horiz-adv-x="1489" 
d="M53 737q28 -20 61 -35q29 -13 67.5 -23.5t84.5 -10.5q41 0 74.5 8t57.5 25.5t37.5 45t13.5 66.5q0 48 -18 78.5t-49.5 48t-74.5 24.5t-92 7h-18v104h20q36 0 71.5 7t64 24.5t46 47.5t17.5 77q0 63 -38.5 95t-107.5 32q-42 0 -77.5 -10.5t-61.5 -23.5q-31 -15 -55 -34v119
q25 14 58 25q28 10 67 18t90 8q128 0 194 -56t66 -161q0 -33 -7.5 -59.5t-20.5 -47.5t-29 -37t-33 -28q-40 -27 -90 -39q103 -6 158 -61.5t55 -149.5q0 -74 -27.5 -123.5t-72 -79.5t-100.5 -42.5t-112 -12.5q-55 0 -95 8t-66 19q-31 12 -52 28zM223 0l1047 1440h135
l-1043 -1440h-139zM821 199v112l408 566h119v-574h96v-104h-96v-199h-129v199h-398zM930 303h289v410q-4 -9 -10 -20q-5 -10 -15 -25.5t-25 -36.5z" />
    <glyph glyph-name="questiondown" unicode="&#xbf;" horiz-adv-x="862" 
d="M61 338q0 44 8 88t27 87.5t50 87t77 85.5l142 131q27 26 44 48.5t26.5 45t12.5 48t3 57.5v90h120v-111q0 -72 -22.5 -128t-79.5 -109l-156 -146q-62 -58 -90 -124.5t-28 -143.5q0 -51 16 -98t51 -83.5t90.5 -58.5t134.5 -22q63 0 116.5 17t92.5 37q46 24 84 54v-143
q-36 -22 -84 -39q-41 -15 -98 -27t-129 -12q-81 0 -155 21t-130.5 65.5t-89.5 114.5t-33 168zM403 1335q0 53 27.5 85t77.5 32q49 0 77.5 -30.5t28.5 -84.5q0 -51 -28 -81.5t-76 -30.5q-46 0 -76.5 30.5t-30.5 79.5z" />
    <glyph glyph-name="Agrave" unicode="&#xc0;" horiz-adv-x="1135" 
d="M-2 0l520 1446h109l503 -1446h-137l-180 520h-506l-184 -520h-125zM344 623h434l-153 444q-14 41 -25 78l-19 66q-9 33 -16 63q-6 -26 -16 -58q-8 -27 -20 -64l-27 -81zM352 1751l72 115l364 -254l-51 -80z" />
    <glyph glyph-name="Aacute" unicode="&#xc1;" horiz-adv-x="1135" 
d="M-2 0l520 1446h109l503 -1446h-137l-180 520h-506l-184 -520h-125zM344 623h434l-153 444q-14 41 -25 78l-19 66q-9 33 -16 63q-6 -26 -16 -58q-8 -27 -20 -64l-27 -81zM352 1612l365 254l71 -115l-385 -219z" />
    <glyph glyph-name="Acircumflex" unicode="&#xc2;" horiz-adv-x="1135" 
d="M-2 0l520 1446h109l503 -1446h-137l-180 520h-506l-184 -520h-125zM256 1610l312 252l311 -252l-57 -78l-254 174l-254 -174zM344 623h434l-153 444q-14 41 -25 78l-19 66q-9 33 -16 63q-6 -26 -16 -58q-8 -27 -20 -64l-27 -81z" />
    <glyph glyph-name="Atilde" unicode="&#xc3;" horiz-adv-x="1135" 
d="M-2 0l520 1446h109l503 -1446h-137l-180 520h-506l-184 -520h-125zM277 1628q11 38 35 68q20 26 55 47.5t89 21.5q26 0 49 -5.5t57 -20.5l51 -23q17 -8 28.5 -12t20.5 -5.5t15.5 -2t13.5 -0.5q26 0 44 10.5t29 23.5q13 15 21 35l80 -51q-11 -39 -35 -69q-20 -26 -55 -47
t-88 -21q-26 0 -49 5.5t-57 21.5l-52 22q-17 8 -28.5 12t-20 6t-15 2.5t-13.5 0.5q-26 0 -44.5 -11t-29.5 -24q-13 -16 -21 -35zM344 623h434l-153 444q-14 41 -25 78l-19 66q-9 33 -16 63q-6 -26 -16 -58q-8 -27 -20 -64l-27 -81z" />
    <glyph glyph-name="Adieresis" unicode="&#xc4;" horiz-adv-x="1135" 
d="M-2 0l520 1446h109l503 -1446h-137l-180 520h-506l-184 -520h-125zM317 1675q0 41 24 64.5t64 23.5q36 0 60 -22.5t24 -63.5q0 -40 -23.5 -64t-64.5 -24q-35 0 -59.5 23t-24.5 63zM344 623h434l-153 444q-14 41 -25 78l-19 66q-9 33 -16 63q-6 -26 -16 -58
q-8 -27 -20 -64l-27 -81zM647 1675q0 41 24 64.5t64 23.5q35 0 59.5 -22.5t24.5 -63.5q0 -40 -24 -64t-64 -24q-35 0 -59.5 23t-24.5 63z" />
    <glyph glyph-name="Aring" unicode="&#xc5;" horiz-adv-x="1135" 
d="M-2 0l520 1446h109l503 -1446h-137l-180 520h-506l-184 -520h-125zM344 623h434l-153 444q-14 41 -25 78l-19 66q-9 33 -16 63q-6 -26 -16 -58q-8 -27 -20 -64l-27 -81zM362 1706q0 48 17 86.5t46.5 65.5t68.5 41t84 14q40 0 78 -12.5t67.5 -38.5t47 -66t17.5 -94
q0 -48 -17 -86.5t-46 -65.5t-68 -41t-84 -14q-41 0 -79 12.5t-67 38.5t-47 66t-18 94zM461 1706q0 -33 9 -56.5t25 -39t36.5 -22.5t43.5 -7q22 0 43 7.5t37 22.5t25.5 37.5t9.5 53.5q0 33 -9.5 56.5t-25 39t-36.5 22.5t-44 7q-22 0 -42.5 -7.5t-36.5 -22.5t-25.5 -37.5
t-9.5 -53.5z" />
    <glyph glyph-name="AE" unicode="&#xc6;" horiz-adv-x="1522" 
d="M0 0l676 1440h770v-109h-555v-532h467v-109h-467v-581h590l-6 -109h-719v694h-297l-318 -694h-141zM508 799h248v561q-6 -23 -16.5 -52t-22.5 -55z" />
    <glyph glyph-name="Ccedilla" unicode="&#xc7;" horiz-adv-x="1143" 
d="M78 696q0 133 24 253.5t76 213.5q87 153 226.5 225t326.5 72q91 0 159 -13t114 -29q54 -18 92 -42v-143q-35 31 -88 57q-45 22 -113.5 40t-163.5 18q-121 0 -216.5 -41.5t-161.5 -121t-101 -195.5t-35 -265q0 -158 33.5 -275.5t98 -196.5t158.5 -118t214 -39
q96 0 166.5 19.5t118.5 43.5q55 28 94 64l-15 -145q-33 -26 -84 -46q-44 -17 -111.5 -31.5t-164.5 -16.5q0 -3 -1 -9t-1 -12q0 -32 20 -50t48 -38q27 -20 47 -52.5t20 -86.5q0 -31 -10 -61.5t-32.5 -55t-60 -40t-91.5 -15.5q-23 0 -41.5 3t-30.5 7q-15 4 -25 10l-8 107
q11 -9 25 -16q12 -6 30 -10.5t43 -4.5q27 0 44 7.5t26 18.5t12.5 24t3.5 24q0 29 -9.5 46.5t-31.5 33.5l-27 19q-14 10 -26 24t-20 34.5t-8 49.5q0 18 2 29.5t4 17.5q-147 13 -251 73.5t-170 155t-97 217.5t-31 262z" />
    <glyph glyph-name="Egrave" unicode="&#xc8;" horiz-adv-x="920" 
d="M154 0v1440h690v-109h-555v-532h467v-109h-467v-581h590l-7 -109h-718zM262 1751l72 115l364 -254l-51 -80z" />
    <glyph glyph-name="Eacute" unicode="&#xc9;" horiz-adv-x="920" 
d="M154 0v1440h690v-109h-555v-532h467v-109h-467v-581h590l-7 -109h-718zM309 1612l365 254l71 -115l-385 -219z" />
    <glyph glyph-name="Ecircumflex" unicode="&#xca;" horiz-adv-x="920" 
d="M154 0v1440h690v-109h-555v-532h467v-109h-467v-581h590l-7 -109h-718zM188 1610l312 252l311 -252l-57 -78l-254 174l-254 -174z" />
    <glyph glyph-name="Edieresis" unicode="&#xcb;" horiz-adv-x="920" 
d="M154 0v1440h690v-109h-555v-532h467v-109h-467v-581h590l-7 -109h-718zM261 1675q0 41 24 64.5t64 23.5q36 0 60 -22.5t24 -63.5q0 -40 -23.5 -64t-64.5 -24q-35 0 -59.5 23t-24.5 63zM591 1675q0 41 24 64.5t64 23.5q35 0 59.5 -22.5t24.5 -63.5q0 -40 -24 -64t-64 -24
q-35 0 -59.5 23t-24.5 63z" />
    <glyph glyph-name="Igrave" unicode="&#xcc;" horiz-adv-x="442" 
d="M-6 1751l72 115l364 -254l-51 -80zM154 0v1440h135v-1440h-135z" />
    <glyph glyph-name="Iacute" unicode="&#xcd;" horiz-adv-x="442" 
d="M-6 1612l364 254l72 -115l-385 -219zM154 0v1440h135v-1440h-135z" />
    <glyph glyph-name="Icircumflex" unicode="&#xce;" horiz-adv-x="442" 
d="M-90 1610l311 252l311 -252l-57 -78l-254 174l-254 -174zM154 0v1440h135v-1440h-135z" />
    <glyph glyph-name="Idieresis" unicode="&#xcf;" horiz-adv-x="442" 
d="M-29 1675q0 41 24 64.5t64 23.5q35 0 59.5 -22.5t24.5 -63.5q0 -40 -23.5 -64t-64.5 -24q-35 0 -59.5 23t-24.5 63zM154 0v1440h135v-1440h-135zM301 1675q0 41 24 64.5t64 23.5q35 0 59.5 -22.5t24.5 -63.5q0 -40 -24 -64t-64 -24q-35 0 -59.5 23t-24.5 63z" />
    <glyph glyph-name="Eth" unicode="&#xd0;" horiz-adv-x="1278" 
d="M4 684v109h150v647h295q91 0 161 -3.5t127 -13t103.5 -27t91.5 -44.5q67 -42 117.5 -103t84 -139t50 -171t16.5 -198q0 -121 -18.5 -224.5t-57.5 -188t-99 -148.5t-144 -106q-50 -25 -102.5 -39.5t-109.5 -22t-119 -10t-130 -2.5h-266v684h-150zM289 109h178
q61 0 111 3.5t92 11t77.5 19t67.5 27.5q60 31 106 84t77 124t47 158t16 187q0 205 -61.5 348t-180.5 205q-28 15 -58 25t-68 17t-87 10t-114 3h-203v-538h389l-6 -109h-383v-575z" />
    <glyph glyph-name="Ntilde" unicode="&#xd1;" horiz-adv-x="1270" 
d="M154 0v1440h118l619 -1002q32 -51 51.5 -87t30.5 -59q13 -27 20 -44v1192h123v-1440h-102l-643 1040q-32 52 -51 86t-29 54q-11 24 -15 37v-1217h-122zM360 1628q11 38 35 68q20 26 55 47.5t89 21.5q26 0 49 -5.5t57 -20.5l51 -23q17 -8 28.5 -12t20.5 -5.5t15.5 -2
t13.5 -0.5q26 0 44 10.5t29 23.5q13 15 21 35l80 -51q-11 -39 -35 -69q-20 -26 -55 -47t-88 -21q-26 0 -49 5.5t-57 21.5l-52 22q-17 8 -28.5 12t-20 6t-15 2.5t-13.5 0.5q-26 0 -44.5 -11t-29.5 -24q-13 -16 -21 -35z" />
    <glyph glyph-name="Ograve" unicode="&#xd2;" horiz-adv-x="1298" 
d="M78 686q0 185 39 329t112.5 243t178.5 150.5t237 51.5q135 0 242 -47.5t181.5 -138t113.5 -222t39 -300.5q0 -185 -39 -329.5t-112.5 -243.5t-179 -150.5t-237.5 -51.5q-135 0 -241.5 47.5t-181 138t-113.5 222.5t-39 301zM217 713q0 -311 109 -469t325 -158
q206 0 318 160.5t112 478.5q0 309 -109.5 468t-324.5 159q-206 0 -318 -160.5t-112 -478.5zM430 1751l72 115l364 -254l-51 -80z" />
    <glyph glyph-name="Oacute" unicode="&#xd3;" horiz-adv-x="1298" 
d="M78 686q0 185 39 329t112.5 243t178.5 150.5t237 51.5q135 0 242 -47.5t181.5 -138t113.5 -222t39 -300.5q0 -185 -39 -329.5t-112.5 -243.5t-179 -150.5t-237.5 -51.5q-135 0 -241.5 47.5t-181 138t-113.5 222.5t-39 301zM217 713q0 -311 109 -469t325 -158
q206 0 318 160.5t112 478.5q0 309 -109.5 468t-324.5 159q-206 0 -318 -160.5t-112 -478.5zM434 1612l365 254l71 -115l-385 -219z" />
    <glyph glyph-name="Ocircumflex" unicode="&#xd4;" horiz-adv-x="1298" 
d="M78 686q0 185 39 329t112.5 243t178.5 150.5t237 51.5q135 0 242 -47.5t181.5 -138t113.5 -222t39 -300.5q0 -185 -39 -329.5t-112.5 -243.5t-179 -150.5t-237.5 -51.5q-135 0 -241.5 47.5t-181 138t-113.5 222.5t-39 301zM217 713q0 -311 109 -469t325 -158
q206 0 318 160.5t112 478.5q0 309 -109.5 468t-324.5 159q-206 0 -318 -160.5t-112 -478.5zM346 1610l312 252l311 -252l-57 -78l-254 174l-254 -174z" />
    <glyph glyph-name="Otilde" unicode="&#xd5;" horiz-adv-x="1298" 
d="M78 686q0 185 39 329t112.5 243t178.5 150.5t237 51.5q135 0 242 -47.5t181.5 -138t113.5 -222t39 -300.5q0 -185 -39 -329.5t-112.5 -243.5t-179 -150.5t-237.5 -51.5q-135 0 -241.5 47.5t-181 138t-113.5 222.5t-39 301zM217 713q0 -311 109 -469t325 -158
q206 0 318 160.5t112 478.5q0 309 -109.5 468t-324.5 159q-206 0 -318 -160.5t-112 -478.5zM360 1628q11 38 35 68q20 26 55 47.5t89 21.5q26 0 49 -5.5t57 -20.5l51 -23q17 -8 28.5 -12t20.5 -5.5t15.5 -2t13.5 -0.5q26 0 44 10.5t29 23.5q13 15 21 35l80 -51
q-11 -39 -35 -69q-20 -26 -55 -47t-88 -21q-26 0 -49 5.5t-57 21.5l-52 22q-17 8 -28.5 12t-20 6t-15 2.5t-13.5 0.5q-26 0 -44.5 -11t-29.5 -24q-13 -16 -21 -35z" />
    <glyph glyph-name="Odieresis" unicode="&#xd6;" horiz-adv-x="1298" 
d="M78 686q0 185 39 329t112.5 243t178.5 150.5t237 51.5q135 0 242 -47.5t181.5 -138t113.5 -222t39 -300.5q0 -185 -39 -329.5t-112.5 -243.5t-179 -150.5t-237.5 -51.5q-135 0 -241.5 47.5t-181 138t-113.5 222.5t-39 301zM217 713q0 -311 109 -469t325 -158
q206 0 318 160.5t112 478.5q0 309 -109.5 468t-324.5 159q-206 0 -318 -160.5t-112 -478.5zM399 1675q0 41 24 64.5t64 23.5q36 0 60 -22.5t24 -63.5q0 -40 -23.5 -64t-64.5 -24q-35 0 -59.5 23t-24.5 63zM729 1675q0 41 24 64.5t64 23.5q35 0 59.5 -22.5t24.5 -63.5
q0 -40 -24 -64t-64 -24q-35 0 -59.5 23t-24.5 63z" />
    <glyph glyph-name="multiply" unicode="&#xd7;" horiz-adv-x="1118" 
d="M55 285l420 426l-418 426l86 86l418 -426l416 424l84 -82l-416 -424l420 -428l-88 -82l-418 426l-418 -424z" />
    <glyph glyph-name="Oslash" unicode="&#xd8;" horiz-adv-x="1298" 
d="M78 686q0 185 39 329t112.5 243t178.5 150.5t237 51.5q100 0 185 -26.5t153 -77.5l82 135h121l-127 -207q78 -91 120 -224.5t42 -307.5q0 -185 -39 -329.5t-112.5 -243.5t-179 -150.5t-237.5 -51.5q-99 0 -182 25.5t-149 73.5l-97 -156h-116l137 225q-82 91 -125 226.5
t-43 314.5zM217 713q0 -295 98 -453l605 991q-53 50 -120.5 75.5t-152.5 25.5q-206 0 -318 -160.5t-112 -478.5zM383 178q53 -46 119 -69t149 -23q206 0 318 160.5t112 478.5q0 142 -23 253t-71 189z" />
    <glyph glyph-name="Ugrave" unicode="&#xd9;" horiz-adv-x="1266" 
d="M143 563v877h136v-936q0 -48 2.5 -97.5t14 -95.5t34 -86.5t61.5 -70t98 -47t144 -17.5q89 0 151 17.5t102.5 48t63 72t33 89t12.5 99t2 102.5v922h125v-830q0 -86 -1.5 -154.5t-10 -125.5t-26.5 -104.5t-50 -90.5q-62 -83 -161 -118t-232 -35q-139 0 -237.5 31.5
t-161.5 107.5q-32 37 -51.5 83t-30 101t-14 119.5t-3.5 138.5zM418 1751l72 115l364 -254l-51 -80z" />
    <glyph glyph-name="Uacute" unicode="&#xda;" horiz-adv-x="1266" 
d="M143 563v877h136v-936q0 -48 2.5 -97.5t14 -95.5t34 -86.5t61.5 -70t98 -47t144 -17.5q89 0 151 17.5t102.5 48t63 72t33 89t12.5 99t2 102.5v922h125v-830q0 -86 -1.5 -154.5t-10 -125.5t-26.5 -104.5t-50 -90.5q-62 -83 -161 -118t-232 -35q-139 0 -237.5 31.5
t-161.5 107.5q-32 37 -51.5 83t-30 101t-14 119.5t-3.5 138.5zM426 1612l365 254l71 -115l-385 -219z" />
    <glyph glyph-name="Ucircumflex" unicode="&#xdb;" horiz-adv-x="1266" 
d="M143 563v877h136v-936q0 -48 2.5 -97.5t14 -95.5t34 -86.5t61.5 -70t98 -47t144 -17.5q89 0 151 17.5t102.5 48t63 72t33 89t12.5 99t2 102.5v922h125v-830q0 -86 -1.5 -154.5t-10 -125.5t-26.5 -104.5t-50 -90.5q-62 -83 -161 -118t-232 -35q-139 0 -237.5 31.5
t-161.5 107.5q-32 37 -51.5 83t-30 101t-14 119.5t-3.5 138.5zM333 1610l312 252l311 -252l-57 -78l-254 174l-254 -174z" />
    <glyph glyph-name="Udieresis" unicode="&#xdc;" horiz-adv-x="1266" 
d="M143 563v877h136v-936q0 -48 2.5 -97.5t14 -95.5t34 -86.5t61.5 -70t98 -47t144 -17.5q89 0 151 17.5t102.5 48t63 72t33 89t12.5 99t2 102.5v922h125v-830q0 -86 -1.5 -154.5t-10 -125.5t-26.5 -104.5t-50 -90.5q-62 -83 -161 -118t-232 -35q-139 0 -237.5 31.5
t-161.5 107.5q-32 37 -51.5 83t-30 101t-14 119.5t-3.5 138.5zM405 1675q0 41 24 64.5t64 23.5q36 0 60 -22.5t24 -63.5q0 -40 -23.5 -64t-64.5 -24q-35 0 -59.5 23t-24.5 63zM735 1675q0 41 24 64.5t64 23.5q35 0 59.5 -22.5t24.5 -63.5q0 -40 -24 -64t-64 -24
q-35 0 -59.5 23t-24.5 63z" />
    <glyph glyph-name="Yacute" unicode="&#xdd;" horiz-adv-x="1090" 
d="M4 1440h156l393 -754l408 754h143l-488 -871v-569h-135v563zM395 1612l365 254l71 -115l-385 -219z" />
    <glyph glyph-name="Thorn" unicode="&#xde;" horiz-adv-x="979" 
d="M154 0v1440h135v-187h127q65 0 116 -3.5t92.5 -11t75 -20.5t64.5 -32q81 -51 122.5 -141.5t41.5 -202.5q0 -108 -27 -183t-70.5 -124t-98.5 -76.5t-110.5 -40.5t-107 -16t-88.5 -3h-137v-399h-135zM289 506h133q68 0 134 8.5t117.5 41.5t83 98.5t31.5 179.5
q0 76 -15.5 129t-42.5 87.5t-63.5 54t-77 29t-83.5 11.5t-84 2h-133v-641z" />
    <glyph glyph-name="germandbls" unicode="&#xdf;" horiz-adv-x="1092" 
d="M154 0v1178q0 36 2 76t11 80t29 78.5t56 72.5q32 31 70.5 49t76.5 27.5t73 12.5t60 3q36 0 79 -3t86 -12.5t83 -27.5t70.5 -49.5t49 -77.5t18.5 -111q0 -60 -14.5 -103.5t-38 -76.5t-53.5 -58l-62 -50l-63 -50q-29 -23 -49.5 -47.5t-32 -53t-11.5 -66.5q0 -32 7.5 -56.5
t23.5 -45t41.5 -39.5t62.5 -40l107 -59q44 -25 80 -52t61.5 -59.5t39 -72.5t13.5 -91q0 -81 -31.5 -137t-81 -90.5t-109.5 -49.5t-116 -15q-71 0 -121.5 13t-82.5 30q-38 18 -62 43l-10 133q28 -33 68 -59q35 -22 88 -40t128 -18q46 0 84 11t65.5 33t42.5 53.5t15 72.5
q0 29 -5 54t-19.5 47.5t-40 43.5t-66.5 43l-112 62q-62 34 -99.5 68.5t-57.5 69t-26 69t-6 67.5q0 55 15.5 97t41 74.5t57.5 58.5l64 51q28 21 53.5 42.5t45 47.5t31.5 58.5t12 74.5q0 67 -26 105.5t-65 57.5t-85.5 23.5t-88.5 4.5q-78 0 -128 -24t-76 -58q-31 -41 -37 -91
t-6 -104v-1198h-129z" />
    <glyph glyph-name="agrave" unicode="&#xe0;" horiz-adv-x="926" 
d="M74 289q0 79 21.5 133.5t57.5 90.5t82 57t96 31.5t99.5 14.5t91.5 7l131 8v108q0 23 -1 48t-7.5 49.5t-19.5 47t-36.5 40t-60.5 27.5t-90 10q-69 0 -118.5 -17.5t-81.5 -37.5q-38 -24 -64 -54v129q26 23 66 41q35 15 89.5 28t133.5 13q78 0 132 -15t89.5 -40t55 -58
t29 -69.5t11.5 -74.5t2 -73v-725l-125 -16v139q-23 -41 -62 -73q-33 -27 -88 -49.5t-136 -22.5q-78 0 -134 25t-92 66.5t-53.5 96.5t-17.5 115zM207 293q0 -33 9 -68t32.5 -63.5t64.5 -47t105 -18.5q48 0 91 16.5t75 45.5t50.5 68.5t18.5 86.5v224l-143 -13
q-65 -5 -120.5 -16t-96 -36t-63.5 -67.5t-23 -111.5zM280 1413l71 115l365 -254l-51 -80z" />
    <glyph glyph-name="aacute" unicode="&#xe1;" horiz-adv-x="926" 
d="M74 289q0 79 21.5 133.5t57.5 90.5t82 57t96 31.5t99.5 14.5t91.5 7l131 8v108q0 23 -1 48t-7.5 49.5t-19.5 47t-36.5 40t-60.5 27.5t-90 10q-69 0 -118.5 -17.5t-81.5 -37.5q-38 -24 -64 -54v129q26 23 66 41q35 15 89.5 28t133.5 13q78 0 132 -15t89.5 -40t55 -58
t29 -69.5t11.5 -74.5t2 -73v-725l-125 -16v139q-23 -41 -62 -73q-33 -27 -88 -49.5t-136 -22.5q-78 0 -134 25t-92 66.5t-53.5 96.5t-17.5 115zM207 293q0 -33 9 -68t32.5 -63.5t64.5 -47t105 -18.5q48 0 91 16.5t75 45.5t50.5 68.5t18.5 86.5v224l-143 -13
q-65 -5 -120.5 -16t-96 -36t-63.5 -67.5t-23 -111.5zM266 1274l364 254l72 -115l-385 -219z" />
    <glyph glyph-name="acircumflex" unicode="&#xe2;" horiz-adv-x="926" 
d="M74 289q0 79 21.5 133.5t57.5 90.5t82 57t96 31.5t99.5 14.5t91.5 7l131 8v108q0 23 -1 48t-7.5 49.5t-19.5 47t-36.5 40t-60.5 27.5t-90 10q-69 0 -118.5 -17.5t-81.5 -37.5q-38 -24 -64 -54v129q26 23 66 41q35 15 89.5 28t133.5 13q78 0 132 -15t89.5 -40t55 -58
t29 -69.5t11.5 -74.5t2 -73v-725l-125 -16v139q-23 -41 -62 -73q-33 -27 -88 -49.5t-136 -22.5q-78 0 -134 25t-92 66.5t-53.5 96.5t-17.5 115zM159 1272l311 252l311 -252l-57 -78l-254 174l-254 -174zM207 293q0 -33 9 -68t32.5 -63.5t64.5 -47t105 -18.5q48 0 91 16.5
t75 45.5t50.5 68.5t18.5 86.5v224l-143 -13q-65 -5 -120.5 -16t-96 -36t-63.5 -67.5t-23 -111.5z" />
    <glyph glyph-name="atilde" unicode="&#xe3;" horiz-adv-x="926" 
d="M74 289q0 79 21.5 133.5t57.5 90.5t82 57t96 31.5t99.5 14.5t91.5 7l131 8v108q0 23 -1 48t-7.5 49.5t-19.5 47t-36.5 40t-60.5 27.5t-90 10q-69 0 -118.5 -17.5t-81.5 -37.5q-38 -24 -64 -54v129q26 23 66 41q35 15 89.5 28t133.5 13q78 0 132 -15t89.5 -40t55 -58
t29 -69.5t11.5 -74.5t2 -73v-725l-125 -16v139q-23 -41 -62 -73q-33 -27 -88 -49.5t-136 -22.5q-78 0 -134 25t-92 66.5t-53.5 96.5t-17.5 115zM171 1290q11 38 35 68q20 26 54.5 47.5t88.5 21.5q26 0 49.5 -5.5t57.5 -20.5l51 -23q17 -8 28.5 -12t20.5 -5.5t15.5 -2
t13.5 -0.5q26 0 44 10.5t29 23.5q13 15 21 35l80 -51q-11 -39 -35 -69q-20 -26 -55 -47t-88 -21q-26 0 -49.5 5.5t-57.5 21.5l-51 22q-17 8 -28.5 12t-20 6t-15.5 2.5t-14 0.5q-26 0 -44 -11t-29 -24q-13 -16 -21 -35zM207 293q0 -33 9 -68t32.5 -63.5t64.5 -47t105 -18.5
q48 0 91 16.5t75 45.5t50.5 68.5t18.5 86.5v224l-143 -13q-65 -5 -120.5 -16t-96 -36t-63.5 -67.5t-23 -111.5z" />
    <glyph glyph-name="adieresis" unicode="&#xe4;" horiz-adv-x="926" 
d="M74 289q0 79 21.5 133.5t57.5 90.5t82 57t96 31.5t99.5 14.5t91.5 7l131 8v108q0 23 -1 48t-7.5 49.5t-19.5 47t-36.5 40t-60.5 27.5t-90 10q-69 0 -118.5 -17.5t-81.5 -37.5q-38 -24 -64 -54v129q26 23 66 41q35 15 89.5 28t133.5 13q78 0 132 -15t89.5 -40t55 -58
t29 -69.5t11.5 -74.5t2 -73v-725l-125 -16v139q-23 -41 -62 -73q-33 -27 -88 -49.5t-136 -22.5q-78 0 -134 25t-92 66.5t-53.5 96.5t-17.5 115zM207 293q0 -33 9 -68t32.5 -63.5t64.5 -47t105 -18.5q48 0 91 16.5t75 45.5t50.5 68.5t18.5 86.5v224l-143 -13
q-65 -5 -120.5 -16t-96 -36t-63.5 -67.5t-23 -111.5zM214 1337q0 41 24 64.5t64 23.5q35 0 59.5 -22.5t24.5 -63.5q0 -40 -24 -64t-64 -24q-35 0 -59.5 23t-24.5 63zM544 1337q0 41 24 64.5t64 23.5q35 0 59.5 -22.5t24.5 -63.5q0 -40 -24 -64t-64 -24q-35 0 -59.5 23
t-24.5 63z" />
    <glyph glyph-name="aring" unicode="&#xe5;" horiz-adv-x="926" 
d="M74 289q0 79 21.5 133.5t57.5 90.5t82 57t96 31.5t99.5 14.5t91.5 7l131 8v108q0 23 -1 48t-7.5 49.5t-19.5 47t-36.5 40t-60.5 27.5t-90 10q-69 0 -118.5 -17.5t-81.5 -37.5q-38 -24 -64 -54v129q26 23 66 41q35 15 89.5 28t133.5 13q78 0 132 -15t89.5 -40t55 -58
t29 -69.5t11.5 -74.5t2 -73v-725l-125 -16v139q-23 -41 -62 -73q-33 -27 -88 -49.5t-136 -22.5q-78 0 -134 25t-92 66.5t-53.5 96.5t-17.5 115zM207 293q0 -33 9 -68t32.5 -63.5t64.5 -47t105 -18.5q48 0 91 16.5t75 45.5t50.5 68.5t18.5 86.5v224l-143 -13
q-65 -5 -120.5 -16t-96 -36t-63.5 -67.5t-23 -111.5zM246 1331q0 48 17 86.5t46 65.5t68 41t84 14q40 0 78.5 -12.5t67.5 -38.5t47 -65.5t18 -94.5q0 -48 -17 -86.5t-46.5 -65.5t-68.5 -41t-83 -14q-41 0 -79 12.5t-67.5 38.5t-47 66t-17.5 94zM344 1331q0 -33 9 -56.5
t25 -39t37 -22.5t44 -7q22 0 42.5 7.5t36.5 22.5t25.5 37.5t9.5 53.5q0 33 -9 56.5t-25 39t-36.5 22.5t-43.5 7t-43.5 -7.5t-36.5 -22.5t-25.5 -37.5t-9.5 -53.5z" />
    <glyph glyph-name="ae" unicode="&#xe6;" horiz-adv-x="1528" 
d="M74 289q0 79 21.5 133.5t57.5 90.5t82 57t96 31.5t99.5 14.5t91.5 7l131 8v108q0 23 -1 48t-7.5 49.5t-19.5 47t-36.5 40t-60.5 27.5t-90 10q-69 0 -118.5 -17.5t-81.5 -37.5q-38 -24 -64 -54v129q26 23 66 41q35 15 89.5 28t133.5 13q48 0 86.5 -7t68 -18t51.5 -25.5
t37 -29.5q36 -35 50 -80q28 45 73 81q38 30 97.5 55.5t144.5 25.5q116 0 190.5 -42.5t117 -112.5t59 -159.5t16.5 -183.5v-32h-676v-21q0 -96 15.5 -175t54.5 -135t104.5 -87t165.5 -31q71 0 124 17t89 38q42 25 72 56l-12 -136q-27 -22 -69 -39q-37 -14 -94.5 -26
t-142.5 -12q-57 0 -102.5 8.5t-81.5 22t-63 31.5t-47 36q-47 43 -68 98q-22 -55 -67 -97q-19 -18 -45 -35.5t-60.5 -31t-77.5 -22t-96 -8.5q-68 0 -116.5 16t-82.5 42t-54.5 59t-31.5 66.5t-14.5 65t-3.5 54.5zM207 293q0 -33 9 -68t32.5 -63.5t64.5 -47t105 -18.5
q48 0 91 16.5t75 45.5t50.5 68.5t18.5 86.5v224l-143 -13q-65 -5 -120.5 -16t-96 -36t-63.5 -67.5t-23 -111.5zM782 633h539q0 61 -10.5 120.5t-39 106.5t-78.5 76t-130 29q-61 0 -105.5 -18.5t-76 -48.5t-50.5 -67t-30 -74t-15 -70t-4 -54z" />
    <glyph glyph-name="ccedilla" unicode="&#xe7;" horiz-adv-x="879" 
d="M82 514q0 126 28 228t84 173.5t140 110.5t196 39q81 0 136 -12t89 -26q40 -17 64 -38v-127q-26 28 -66 50q-34 19 -85 35t-123 16q-29 0 -64.5 -4t-72 -18.5t-71.5 -43t-62 -77.5t-43.5 -121.5t-16.5 -174.5q0 -98 17.5 -179t58 -138.5t106 -89t162.5 -31.5
q68 0 117.5 17t82.5 38q39 25 66 56l-12 -136q-25 -21 -64 -38q-33 -14 -83.5 -26t-122.5 -13q0 -3 -1 -9t-1 -12q0 -32 19.5 -50t47.5 -38t48 -52.5t20 -86.5q0 -31 -10 -61.5t-33 -55t-60 -40t-92 -15.5q-23 0 -41 3t-30 7q-14 4 -25 10l-8 107q11 -9 25 -16
q12 -6 30 -10.5t43 -4.5q27 0 44 7.5t26 18.5t12.5 24t3.5 24q0 29 -9.5 46.5t-31.5 33.5l-28 19q-14 10 -26 24t-20 34.5t-8 49.5q0 20 2 32t4 17q-65 9 -130 38t-116.5 89t-83.5 156.5t-32 240.5z" />
    <glyph glyph-name="egrave" unicode="&#xe8;" horiz-adv-x="965" 
d="M82 514q0 119 25 220t77.5 174.5t132.5 115t191 41.5q116 0 190.5 -42.5t117 -112.5t59 -159.5t16.5 -183.5v-32h-676q0 -101 15 -183.5t53 -141.5t104 -91.5t168 -32.5q71 0 124 17t89 38q42 25 72 56l-13 -136q-27 -22 -69 -39q-36 -14 -94 -26t-142 -12
q-51 0 -103.5 8t-101.5 29.5t-92 59.5t-74.5 96.5t-50 141.5t-18.5 195zM219 633h539q0 61 -10.5 120.5t-39 106.5t-78.5 76t-130 29q-61 0 -105.5 -18.5t-76 -48.5t-50.5 -67t-30 -74t-15 -70t-4 -54zM287 1413l71 115l365 -254l-51 -80z" />
    <glyph glyph-name="eacute" unicode="&#xe9;" horiz-adv-x="965" 
d="M82 514q0 119 25 220t77.5 174.5t132.5 115t191 41.5q116 0 190.5 -42.5t117 -112.5t59 -159.5t16.5 -183.5v-32h-676q0 -101 15 -183.5t53 -141.5t104 -91.5t168 -32.5q71 0 124 17t89 38q42 25 72 56l-13 -136q-27 -22 -69 -39q-36 -14 -94 -26t-142 -12
q-51 0 -103.5 8t-101.5 29.5t-92 59.5t-74.5 96.5t-50 141.5t-18.5 195zM219 633h539q0 61 -10.5 120.5t-39 106.5t-78.5 76t-130 29q-61 0 -105.5 -18.5t-76 -48.5t-50.5 -67t-30 -74t-15 -70t-4 -54zM285 1274l364 254l72 -115l-385 -219z" />
    <glyph glyph-name="ecircumflex" unicode="&#xea;" horiz-adv-x="965" 
d="M82 514q0 119 25 220t77.5 174.5t132.5 115t191 41.5q116 0 190.5 -42.5t117 -112.5t59 -159.5t16.5 -183.5v-32h-676q0 -101 15 -183.5t53 -141.5t104 -91.5t168 -32.5q71 0 124 17t89 38q42 25 72 56l-13 -136q-27 -22 -69 -39q-36 -14 -94 -26t-142 -12
q-51 0 -103.5 8t-101.5 29.5t-92 59.5t-74.5 96.5t-50 141.5t-18.5 195zM193 1272l311 252l311 -252l-57 -78l-254 174l-254 -174zM219 633h539q0 61 -10.5 120.5t-39 106.5t-78.5 76t-130 29q-61 0 -105.5 -18.5t-76 -48.5t-50.5 -67t-30 -74t-15 -70t-4 -54z" />
    <glyph glyph-name="edieresis" unicode="&#xeb;" horiz-adv-x="965" 
d="M82 514q0 119 25 220t77.5 174.5t132.5 115t191 41.5q116 0 190.5 -42.5t117 -112.5t59 -159.5t16.5 -183.5v-32h-676q0 -101 15 -183.5t53 -141.5t104 -91.5t168 -32.5q71 0 124 17t89 38q42 25 72 56l-13 -136q-27 -22 -69 -39q-36 -14 -94 -26t-142 -12
q-51 0 -103.5 8t-101.5 29.5t-92 59.5t-74.5 96.5t-50 141.5t-18.5 195zM219 633h539q0 61 -10.5 120.5t-39 106.5t-78.5 76t-130 29q-61 0 -105.5 -18.5t-76 -48.5t-50.5 -67t-30 -74t-15 -70t-4 -54zM264 1337q0 41 24 64.5t64 23.5q35 0 59.5 -22.5t24.5 -63.5
q0 -40 -24 -64t-64 -24q-35 0 -59.5 23t-24.5 63zM594 1337q0 41 24 64.5t64 23.5q35 0 59.5 -22.5t24.5 -63.5q0 -40 -24 -64t-64 -24q-35 0 -59.5 23t-24.5 63z" />
    <glyph glyph-name="igrave" unicode="&#xec;" horiz-adv-x="436" 
d="M0 1413l72 115l364 -254l-51 -80zM154 0v1049h129v-1049h-129z" />
    <glyph glyph-name="iacute" unicode="&#xed;" horiz-adv-x="436" 
d="M0 1274l365 254l71 -115l-385 -219zM154 0v1049h129v-1049h-129z" />
    <glyph glyph-name="icircumflex" unicode="&#xee;" horiz-adv-x="436" 
d="M-92 1272l311 252l311 -252l-57 -78l-254 174l-254 -174zM154 0v1049h129v-1049h-129z" />
    <glyph glyph-name="idieresis" unicode="&#xef;" horiz-adv-x="436" 
d="M-33 1337q0 41 24 64.5t64 23.5q35 0 59.5 -22.5t24.5 -63.5q0 -40 -24 -64t-64 -24q-35 0 -59.5 23t-24.5 63zM154 0v1049h129v-1049h-129zM297 1337q0 41 24 64.5t64 23.5q35 0 59.5 -22.5t24.5 -63.5q0 -40 -24 -64t-64 -24q-35 0 -59.5 23t-24.5 63z" />
    <glyph glyph-name="eth" unicode="&#xf0;" horiz-adv-x="989" 
d="M82 510q0 113 19 197.5t51 145.5t74.5 100.5t89.5 62.5t96 32t94 9q71 0 119.5 -14t80.5 -31q36 -20 60 -45q-2 94 -20 181t-60 159l-158 -109l-57 86l152 105q-44 40 -103 62t-139 22q-54 0 -97 -11t-75 -24q-37 -16 -66 -35v115q27 16 64 29q32 11 77 20.5t105 9.5
q117 0 198 -32t138 -87l170 119l57 -86l-164 -113q39 -63 62.5 -138t36 -158t16.5 -174t4 -185q0 -150 -14.5 -263t-41 -195t-64.5 -136.5t-85 -86.5t-102 -45t-115 -13q-45 0 -92.5 8.5t-92 30.5t-84.5 60t-69.5 96t-47 139.5t-17.5 191.5zM215 524q0 -101 14.5 -181.5
t47 -137t83.5 -87t125 -30.5q77 0 131.5 31t89 104t50.5 193.5t16 300.5q0 25 -0.5 48t-1.5 40q-1 20 -2 37q-25 30 -60 55q-30 20 -75.5 37.5t-106.5 17.5q-102 0 -163.5 -40t-94 -102.5t-43 -138t-10.5 -147.5z" />
    <glyph glyph-name="ntilde" unicode="&#xf1;" horiz-adv-x="1067" 
d="M154 0v1049h125v-131q26 40 68 73q36 28 94 51t143 23t143 -23.5t96 -58.5q37 -34 57.5 -74.5t30 -82.5t11.5 -82.5t2 -73.5v-670h-129v645q0 34 -1.5 70t-9 70t-22.5 65t-43 54t-71 36.5t-105 13.5q-42 0 -87.5 -12t-84 -39t-63.5 -70t-25 -104v-729h-129zM268 1290
q11 38 35 68q20 26 54.5 47.5t88.5 21.5q26 0 49.5 -5.5t57.5 -20.5l51 -23q17 -8 28.5 -12t20.5 -5.5t15.5 -2t13.5 -0.5q26 0 44 10.5t29 23.5q13 15 21 35l80 -51q-11 -39 -35 -69q-20 -26 -55 -47t-88 -21q-26 0 -49.5 5.5t-57.5 21.5l-51 22q-17 8 -28.5 12t-20 6
t-15.5 2.5t-14 0.5q-26 0 -44 -11t-29 -24q-13 -16 -21 -35z" />
    <glyph glyph-name="ograve" unicode="&#xf2;" horiz-adv-x="1018" 
d="M82 506q0 120 25 222.5t78.5 177.5t136 117t196.5 42q96 0 173.5 -35t131.5 -102.5t83.5 -166.5t29.5 -226q0 -121 -25 -223.5t-78.5 -177.5t-136 -117t-196.5 -42q-96 0 -173.5 35t-131.5 103t-83.5 166.5t-29.5 226.5zM215 518q0 -84 14 -162.5t48 -140t91 -98.5
t142 -37q75 0 130.5 31t91.5 88t53.5 139t17.5 184q0 84 -14 163t-48 140.5t-91 98.5t-142 37q-75 0 -130.5 -31t-91.5 -88.5t-53.5 -139.5t-17.5 -184zM310 1413l71 115l365 -254l-51 -80z" />
    <glyph glyph-name="oacute" unicode="&#xf3;" horiz-adv-x="1018" 
d="M82 506q0 120 25 222.5t78.5 177.5t136 117t196.5 42q96 0 173.5 -35t131.5 -102.5t83.5 -166.5t29.5 -226q0 -121 -25 -223.5t-78.5 -177.5t-136 -117t-196.5 -42q-96 0 -173.5 35t-131.5 103t-83.5 166.5t-29.5 226.5zM215 518q0 -84 14 -162.5t48 -140t91 -98.5
t142 -37q75 0 130.5 31t91.5 88t53.5 139t17.5 184q0 84 -14 163t-48 140.5t-91 98.5t-142 37q-75 0 -130.5 -31t-91.5 -88.5t-53.5 -139.5t-17.5 -184zM330 1274l364 254l72 -115l-385 -219z" />
    <glyph glyph-name="ocircumflex" unicode="&#xf4;" horiz-adv-x="1018" 
d="M82 506q0 120 25 222.5t78.5 177.5t136 117t196.5 42q96 0 173.5 -35t131.5 -102.5t83.5 -166.5t29.5 -226q0 -121 -25 -223.5t-78.5 -177.5t-136 -117t-196.5 -42q-96 0 -173.5 35t-131.5 103t-83.5 166.5t-29.5 226.5zM209 1272l311 252l311 -252l-57 -78l-254 174
l-254 -174zM215 518q0 -84 14 -162.5t48 -140t91 -98.5t142 -37q75 0 130.5 31t91.5 88t53.5 139t17.5 184q0 84 -14 163t-48 140.5t-91 98.5t-142 37q-75 0 -130.5 -31t-91.5 -88.5t-53.5 -139.5t-17.5 -184z" />
    <glyph glyph-name="otilde" unicode="&#xf5;" horiz-adv-x="1018" 
d="M82 506q0 120 25 222.5t78.5 177.5t136 117t196.5 42q96 0 173.5 -35t131.5 -102.5t83.5 -166.5t29.5 -226q0 -121 -25 -223.5t-78.5 -177.5t-136 -117t-196.5 -42q-96 0 -173.5 35t-131.5 103t-83.5 166.5t-29.5 226.5zM215 518q0 -84 14 -162.5t48 -140t91 -98.5
t142 -37q75 0 130.5 31t91.5 88t53.5 139t17.5 184q0 84 -14 163t-48 140.5t-91 98.5t-142 37q-75 0 -130.5 -31t-91.5 -88.5t-53.5 -139.5t-17.5 -184zM228 1290q11 38 35 68q20 26 54.5 47.5t88.5 21.5q26 0 49.5 -5.5t57.5 -20.5l51 -23q17 -8 28.5 -12t20.5 -5.5
t15.5 -2t13.5 -0.5q26 0 44 10.5t29 23.5q13 15 21 35l80 -51q-11 -39 -35 -69q-20 -26 -55 -47t-88 -21q-26 0 -49.5 5.5t-57.5 21.5l-51 22q-17 8 -28.5 12t-20 6t-15.5 2.5t-14 0.5q-26 0 -44 -11t-29 -24q-13 -16 -21 -35z" />
    <glyph glyph-name="odieresis" unicode="&#xf6;" horiz-adv-x="1018" 
d="M82 506q0 120 25 222.5t78.5 177.5t136 117t196.5 42q96 0 173.5 -35t131.5 -102.5t83.5 -166.5t29.5 -226q0 -121 -25 -223.5t-78.5 -177.5t-136 -117t-196.5 -42q-96 0 -173.5 35t-131.5 103t-83.5 166.5t-29.5 226.5zM215 518q0 -84 14 -162.5t48 -140t91 -98.5
t142 -37q75 0 130.5 31t91.5 88t53.5 139t17.5 184q0 84 -14 163t-48 140.5t-91 98.5t-142 37q-75 0 -130.5 -31t-91.5 -88.5t-53.5 -139.5t-17.5 -184zM266 1337q0 41 24 64.5t64 23.5q35 0 59.5 -22.5t24.5 -63.5q0 -40 -24 -64t-64 -24q-35 0 -59.5 23t-24.5 63z
M596 1337q0 41 24 64.5t64 23.5q35 0 59.5 -22.5t24.5 -63.5q0 -40 -24 -64t-64 -24q-35 0 -59.5 23t-24.5 63z" />
    <glyph glyph-name="divide" unicode="&#xf7;" horiz-adv-x="1311" 
d="M47 655v121h1217v-121h-1217zM532 299q0 27 9 49.5t25.5 38t39 24.5t49.5 9q51 0 86 -32t35 -89t-35 -90t-86 -33q-25 0 -47.5 8.5t-39 24.5t-26.5 38.5t-10 51.5zM532 1147q0 57 34.5 90t88.5 33q51 0 86 -33t35 -90q0 -27 -9.5 -49.5t-25.5 -38t-38.5 -24.5t-47.5 -9
t-47.5 9t-39 24.5t-26.5 38t-10 49.5z" />
    <glyph glyph-name="oslash" unicode="&#xf8;" horiz-adv-x="1018" 
d="M82 506q0 120 25 222.5t78.5 177.5t136 117t196.5 42q63 0 118 -16t101 -45l72 120h115l-111 -186q59 -68 91 -169t32 -234q0 -121 -25 -223.5t-78.5 -177.5t-136 -117t-196.5 -42q-63 0 -117 15t-100 43l-74 -127h-111l111 190q-62 68 -94.5 170.5t-32.5 239.5zM215 518
q0 -85 13.5 -164t47.5 -141l402 688q-32 28 -74 44t-96 16q-75 0 -130.5 -31t-91.5 -88.5t-53.5 -139.5t-17.5 -184zM342 135q32 -26 73.5 -40.5t94.5 -14.5q75 0 130.5 31t91.5 88t53.5 139t17.5 184q0 82 -14 158.5t-46 136.5z" />
    <glyph glyph-name="ugrave" unicode="&#xf9;" horiz-adv-x="1067" 
d="M143 379v670h129v-650q0 -53 4.5 -107t28.5 -98t75 -72t144 -28q42 0 87.5 12t84 39t63.5 70t25 104v730h129v-1041l-125 -16v139q-26 -41 -68 -74q-36 -28 -94 -50.5t-143 -22.5t-142 21t-95 56q-37 34 -58 75t-31 83t-12 83.5t-2 76.5zM316 1413l71 115l365 -254
l-51 -80z" />
    <glyph glyph-name="uacute" unicode="&#xfa;" horiz-adv-x="1067" 
d="M143 379v670h129v-650q0 -53 4.5 -107t28.5 -98t75 -72t144 -28q42 0 87.5 12t84 39t63.5 70t25 104v730h129v-1041l-125 -16v139q-26 -41 -68 -74q-36 -28 -94 -50.5t-143 -22.5t-142 21t-95 56q-37 34 -58 75t-31 83t-12 83.5t-2 76.5zM344 1274l364 254l72 -115
l-385 -219z" />
    <glyph glyph-name="ucircumflex" unicode="&#xfb;" horiz-adv-x="1067" 
d="M143 379v670h129v-650q0 -53 4.5 -107t28.5 -98t75 -72t144 -28q42 0 87.5 12t84 39t63.5 70t25 104v730h129v-1041l-125 -16v139q-26 -41 -68 -74q-36 -28 -94 -50.5t-143 -22.5t-142 21t-95 56q-37 34 -58 75t-31 83t-12 83.5t-2 76.5zM222 1272l311 252l311 -252
l-57 -78l-254 174l-254 -174z" />
    <glyph glyph-name="udieresis" unicode="&#xfc;" horiz-adv-x="1067" 
d="M143 379v670h129v-650q0 -53 4.5 -107t28.5 -98t75 -72t144 -28q42 0 87.5 12t84 39t63.5 70t25 104v730h129v-1041l-125 -16v139q-26 -41 -68 -74q-36 -28 -94 -50.5t-143 -22.5t-142 21t-95 56q-37 34 -58 75t-31 83t-12 83.5t-2 76.5zM284 1337q0 41 24 64.5t64 23.5
q35 0 59.5 -22.5t24.5 -63.5q0 -40 -24 -64t-64 -24q-35 0 -59.5 23t-24.5 63zM614 1337q0 41 24 64.5t64 23.5q35 0 59.5 -22.5t24.5 -63.5q0 -40 -24 -64t-64 -24q-35 0 -59.5 23t-24.5 63z" />
    <glyph glyph-name="yacute" unicode="&#xfd;" horiz-adv-x="858" 
d="M-27 -340q10 -9 27 -15q14 -5 37.5 -9.5t58.5 -4.5q71 0 115 47t78 138l80 217l-373 1016h137l254 -719q15 -45 24 -75t14 -50q5 -23 7 -37q4 19 11 44l15 50q8 30 21 66l254 721h125l-432 -1188q-23 -65 -48 -124.5t-62 -106t-90 -74t-132 -27.5q-28 0 -49 3t-35 7
q-17 4 -28 10zM274 1274l364 254l72 -115l-385 -219z" />
    <glyph glyph-name="thorn" unicode="&#xfe;" horiz-adv-x="1042" 
d="M154 -471v2021l125 27v-655q25 39 64 71q33 27 85.5 49.5t128.5 22.5q108 0 185 -43t125.5 -114.5t71 -165t22.5 -193.5q0 -161 -37 -269t-98.5 -174t-142 -94t-167.5 -28q-59 0 -102.5 11.5t-72.5 25.5q-34 17 -58 38v-530h-129zM283 164q22 -22 55 -39q28 -15 70.5 -27
t99.5 -12q162 0 240.5 111.5t78.5 330.5q0 121 -21 203t-60 131.5t-94 70.5t-122 21q-57 0 -103 -16t-78 -44.5t-49 -69t-17 -89.5v-571z" />
    <glyph glyph-name="ydieresis" unicode="&#xff;" horiz-adv-x="858" 
d="M-27 -340q10 -9 27 -15q14 -5 37.5 -9.5t58.5 -4.5q71 0 115 47t78 138l80 217l-373 1016h137l254 -719q15 -45 24 -75t14 -50q5 -23 7 -37q4 19 11 44l15 50q8 30 21 66l254 721h125l-432 -1188q-23 -65 -48 -124.5t-62 -106t-90 -74t-132 -27.5q-28 0 -49 3t-35 7
q-17 4 -28 10zM175 1337q0 41 24 64.5t64 23.5q35 0 59.5 -22.5t24.5 -63.5q0 -40 -24 -64t-64 -24q-35 0 -59.5 23t-24.5 63zM505 1337q0 41 24 64.5t64 23.5q35 0 59.5 -22.5t24.5 -63.5q0 -40 -24 -64t-64 -24q-35 0 -59.5 23t-24.5 63z" />
    <glyph glyph-name="OE" unicode="&#x152;" horiz-adv-x="1681" 
d="M78 686q0 185 38.5 329.5t114 243.5t187 151t258.5 52q72 0 128 -5.5t116 -16.5h686v-109h-555v-532h467v-109h-467v-581h589l-6 -109h-714q-57 -11 -122 -17t-122 -6q-142 0 -253.5 47.5t-188 138t-116.5 222.5t-40 301zM217 713q0 -311 112.5 -469t336.5 -158
q40 0 71.5 1t60.5 5t57 11.5t60 19.5v1184q-58 26 -118.5 35.5t-128.5 9.5q-224 0 -337.5 -160.5t-113.5 -478.5z" />
    <glyph glyph-name="oe" unicode="&#x153;" horiz-adv-x="1679" 
d="M82 506q0 120 25 222.5t78.5 177.5t136 117t196.5 42q128 0 214 -60t134 -169q46 106 133 167.5t224 61.5q116 0 190.5 -42.5t117 -112.5t59 -159.5t16.5 -183.5v-32h-676q0 -101 14.5 -183.5t53 -141.5t104.5 -91.5t168 -32.5q71 0 123.5 17t88.5 38q41 25 72 56
l-12 -136q-27 -22 -69 -39q-36 -14 -94 -26t-142 -12q-54 0 -109 10t-105 34.5t-91.5 67.5t-69.5 109q-23 -52 -56 -94.5t-78 -72.5t-101.5 -46.5t-126.5 -16.5q-96 0 -173.5 35t-131.5 103t-83.5 166.5t-29.5 226.5zM215 518q0 -84 14 -162.5t48 -140t91 -98.5t142 -37
q75 0 130.5 31t91.5 88t53.5 139t17.5 184q0 84 -14 163t-48 140.5t-91 98.5t-142 37q-75 0 -130.5 -31t-91.5 -88.5t-53.5 -139.5t-17.5 -184zM934 633h539q0 61 -10.5 120.5t-39 106.5t-79 76t-130.5 29q-61 0 -105 -18.5t-75.5 -48.5t-51 -67t-30 -74t-14.5 -70t-4 -54z
" />
    <glyph glyph-name="Ydieresis" unicode="&#x178;" horiz-adv-x="1090" 
d="M4 1440h156l393 -754l408 754h143l-488 -871v-569h-135v563zM315 1675q0 41 24 64.5t64 23.5q36 0 60 -22.5t24 -63.5q0 -40 -23.5 -64t-64.5 -24q-35 0 -59.5 23t-24.5 63zM645 1675q0 41 24 64.5t64 23.5q35 0 59.5 -22.5t24.5 -63.5q0 -40 -24 -64t-64 -24
q-35 0 -59.5 23t-24.5 63z" />
    <glyph glyph-name="circumflex" unicode="&#x2c6;" horiz-adv-x="1024" 
d="M193 1272l311 252l311 -252l-57 -78l-254 174l-254 -174z" />
    <glyph glyph-name="tilde" unicode="&#x2dc;" horiz-adv-x="1024" 
d="M268 1290q11 38 35 68q20 26 54.5 47.5t88.5 21.5q26 0 49.5 -5.5t57.5 -20.5l51 -23q17 -8 28.5 -12t20.5 -5.5t15.5 -2t13.5 -0.5q26 0 44 10.5t29 23.5q13 15 21 35l80 -51q-11 -39 -35 -69q-20 -26 -55 -47t-88 -21q-26 0 -49.5 5.5t-57.5 21.5l-51 22
q-17 8 -28.5 12t-20 6t-15.5 2.5t-14 0.5q-26 0 -44 -11t-29 -24q-13 -16 -21 -35z" />
    <glyph glyph-name="endash" unicode="&#x2013;" horiz-adv-x="1024" 
d="M0 494v102h1024v-102h-1024z" />
    <glyph glyph-name="emdash" unicode="&#x2014;" horiz-adv-x="2048" 
d="M0 494v102h2048v-102h-2048z" />
    <glyph glyph-name="quoteleft" unicode="&#x2018;" horiz-adv-x="416" 
d="M109 1110q-1 14 -1 28q0 50 8 99q11 64 30 125t44.5 117.5t51.5 105.5l104 -35q-23 -57 -39.5 -111t-27 -107t-14.5 -108q-1 -26 -1 -52q0 -31 2 -62h-157z" />
    <glyph glyph-name="quoteright" unicode="&#x2019;" horiz-adv-x="406" 
d="M98 1137q23 57 40 111t27 107t14 108q1 26 1 52q0 31 -2 62h158q1 -14 1 -28q0 -50 -8 -99q-11 -64 -30.5 -125t-44.5 -117.5t-51 -105.5z" />
    <glyph glyph-name="quotesinglbase" unicode="&#x201a;" horiz-adv-x="406" 
d="M41 -252q23 58 39.5 112t27 107t14.5 108q1 25 1 51q0 31 -2 62h158q1 -14 1 -28q0 -50 -8 -99q-11 -64 -30.5 -125t-45 -117.5t-51.5 -105.5z" />
    <glyph glyph-name="quotedblleft" unicode="&#x201c;" horiz-adv-x="754" 
d="M109 1110q-1 14 -1 28q0 50 8 99q11 64 30 125t44.5 117.5t51.5 105.5l104 -35q-23 -57 -39.5 -111t-27 -107t-14.5 -108q-1 -26 -1 -52q0 -31 2 -62h-157zM446 1110q-1 14 -1 28q0 50 9 99q10 64 29.5 125t45 117.5t51.5 105.5l104 -35q-23 -57 -39.5 -111t-27 -107
t-14.5 -108q-1 -26 -1 -52q0 -31 2 -62h-158z" />
    <glyph glyph-name="quotedblright" unicode="&#x201d;" horiz-adv-x="743" 
d="M98 1137q23 57 40 111t27 107t14 108q1 26 1 52q0 31 -2 62h158q1 -14 1 -28q0 -50 -8 -99q-11 -64 -30.5 -125t-44.5 -117.5t-51 -105.5zM436 1137q23 57 40 111t27 107t14 108q1 26 1 52q0 31 -2 62h158q1 -14 1 -28q0 -50 -8 -99q-11 -64 -30.5 -125t-44.5 -117.5
t-51 -105.5z" />
    <glyph glyph-name="quotedblbase" unicode="&#x201e;" horiz-adv-x="743" 
d="M41 -252q23 58 39.5 112t27 107t14.5 108q1 25 1 51q0 31 -2 62h158q1 -14 1 -28q0 -50 -8 -99q-11 -64 -30.5 -125t-45 -117.5t-51.5 -105.5zM379 -252q23 58 39.5 112t27 107t14.5 108q1 25 1 51q0 31 -2 62h157q1 -14 1 -28q0 -50 -8 -99q-11 -64 -30 -125
t-44.5 -117.5t-51.5 -105.5z" />
    <glyph glyph-name="bullet" unicode="&#x2022;" horiz-adv-x="1061" 
d="M215 598q0 65 24.5 123t67 101t100 68t123.5 25q64 0 121 -25t100.5 -68t69 -101t25.5 -123q0 -66 -25.5 -124t-69 -101.5t-100.5 -68.5t-121 -25q-66 0 -123.5 25t-100 68.5t-67 101.5t-24.5 124z" />
    <glyph glyph-name="ellipsis" unicode="&#x2026;" horiz-adv-x="1630" 
d="M104 92q0 54 31 87.5t82 33.5q50 0 82.5 -32.5t32.5 -86.5q0 -56 -30 -90.5t-83 -34.5q-52 0 -83.5 32t-31.5 91zM719 92q0 54 30.5 87.5t81.5 33.5q50 0 82.5 -32.5t32.5 -86.5q0 -56 -30 -90.5t-82 -34.5q-53 0 -84 32t-31 91zM1315 92q0 54 30.5 87.5t81.5 33.5
q50 0 82.5 -32.5t32.5 -86.5q0 -56 -30 -90.5t-82 -34.5q-53 0 -84 32t-31 91z" />
    <glyph glyph-name="guilsinglleft" unicode="&#x2039;" horiz-adv-x="530" 
d="M102 516l215 408h127l-190 -406l190 -407h-127z" />
    <glyph glyph-name="guilsinglright" unicode="&#x203a;" horiz-adv-x="530" 
d="M86 111l190 405l-190 408h127l215 -406l-215 -407h-127z" />
    <glyph glyph-name="Euro" unicode="&#x20ac;" 
d="M-6 498l20 102h146q-2 23 -2 51v47v53q0 26 2 52h-142l21 102h131q9 72 25.5 133.5t42.5 118.5q68 149 188 226t272 77q74 0 128.5 -13t90.5 -29q42 -18 72 -42v-143q-30 31 -72 57q-36 22 -90.5 40t-128.5 18q-111 0 -194.5 -56t-134.5 -159q-23 -48 -39 -103.5
t-25 -124.5h533l-21 -102h-520q-2 -20 -2 -44v-44q0 -28 1 -59t3 -56h479l-20 -102h-453q9 -72 32.5 -143.5t68 -129t114 -93.5t170.5 -36q72 0 128 16t94 36q45 23 77 53l-12 -146q-31 -20 -74 -36q-37 -14 -92 -24.5t-129 -10.5q-112 0 -193 31t-137 79t-90.5 107.5
t-54.5 116.5t-28 105.5t-11 74.5h-174z" />
    <glyph glyph-name="trademark" unicode="&#x2122;" horiz-adv-x="1794" 
d="M59 1341v99h596v-99h-239v-708h-119v708h-238zM782 633v807h172l215 -586l8 -24q4 -12 6 -23q3 -12 5 -23l8 28q4 11 8 24t8 22l224 582h159v-807h-110v667q-6 -16 -11 -32l-10 -28q-5 -15 -10 -26l-229 -581h-90l-220 596q-12 33 -17 54q-4 12 -5 22v-672h-111z" />
    <glyph glyph-name="uniE000" unicode="&#xe000;" horiz-adv-x="1050" 
d="M0 1050h1050v-1050h-1050v1050z" />
    <glyph glyph-name="uniFB01" unicode="&#xfb01;" horiz-adv-x="985" 
d="M96 944v103h111v161q0 23 1 52.5t6 61t15.5 64t30.5 62.5q17 25 42 48.5t61 41.5t84 28.5t110 10.5q47 0 83.5 -4.5t65 -11.5t49.5 -16t36 -17q37 -22 50 -43.5t13 -50.5q0 -38 -21.5 -61t-58.5 -23q-42 0 -61 22.5t-19 63.5v14q-28 17 -61.5 22t-75.5 5
q-83 0 -127.5 -27.5t-67.5 -69.5q-10 -18 -15 -39.5t-7.5 -42.5t-3 -41t-0.5 -36v-174h506v-1047h-129v944h-377v-944h-129v944h-111z" />
    <glyph glyph-name="uniFB02" unicode="&#xfb02;" horiz-adv-x="1006" 
d="M96 944v103h111v182q0 23 1.5 50t6.5 55.5t16 57.5t29 56q17 25 42 48.5t61 41.5t84 28.5t110 10.5q54 0 97.5 -8.5t74.5 -18.5l123 27v-1577h-129v1432q-34 18 -75 31.5t-95 13.5q-80 0 -124 -27.5t-67 -69.5q-10 -18 -15 -37.5t-7.5 -39.5t-3 -39t-0.5 -35v-182h215
v-103h-215v-944h-129v944h-111z" />
    <glyph glyph-name="uniFB03" unicode="&#xfb03;" horiz-adv-x="1616" 
d="M96 944v103h111v217q0 66 7.5 120.5t35.5 98.5q35 55 87.5 74.5t117.5 19.5q36 0 62.5 -5t43.5 -10q20 -6 35 -14l-12 -108q-10 9 -27 17q-14 7 -37 12.5t-57 5.5q-35 0 -62 -13.5t-43 -38.5q-17 -26 -19.5 -64t-2.5 -75v-237h215v-103h-215v-944h-129v944h-111zM686 944
v103h111v217q0 66 7.5 120.5t35.5 98.5q35 55 87.5 74.5t117.5 19.5q36 0 62.5 -5t43.5 -10q20 -6 35 -14l-12 -108q-10 9 -27 17q-14 7 -37 12.5t-57 5.5q-35 0 -62 -13.5t-43 -38.5q-17 -26 -19.5 -64t-2.5 -75v-237h215v-103h-215v-944h-129v944h-111zM1315 1421
q0 41 23 63.5t61 22.5q35 0 59.5 -22t24.5 -60q0 -40 -24 -63t-62 -23q-35 0 -58.5 22.5t-23.5 59.5zM1334 0v1049h129v-1049h-129z" />
    <glyph glyph-name="uniFB04" unicode="&#xfb04;" horiz-adv-x="1616" 
d="M96 944v103h111v217q0 66 7.5 120.5t35.5 98.5q35 55 87.5 74.5t117.5 19.5q36 0 62.5 -5t43.5 -10q20 -6 35 -14l-12 -108q-10 9 -27 17q-14 7 -37 12.5t-57 5.5q-35 0 -62 -13.5t-43 -38.5q-17 -26 -19.5 -64t-2.5 -75v-237h215v-103h-215v-944h-129v944h-111zM686 944
v103h111v217q0 66 7.5 120.5t35.5 98.5q35 55 87.5 74.5t117.5 19.5q36 0 62.5 -5t43.5 -10q20 -6 35 -14l-12 -108q-10 9 -27 17q-14 7 -37 12.5t-57 5.5q-35 0 -62 -13.5t-43 -38.5q-17 -26 -19.5 -64t-2.5 -75v-237h215v-103h-215v-944h-129v944h-111zM1334 0v1550
l129 27v-1577h-129z" />
    </font>
</defs>
</svg>
